<svg width="416" height="416" viewBox="0 0 416 416" fill="none" xmlns="http://www.w3.org/2000/svg">
<rect width="416" height="416" rx="50" fill="url(#paint0_linear_7_23)"/>
<path d="M313.617 79.8063C327.152 113.342 298.343 150.612 282.246 165.055C279.544 206.975 282.034 279.613 313.617 234.804C353.095 178.794 348.865 90.3744 343.93 71.7042C338.995 53.0339 320.314 40 305.157 40C290 40 293.878 43.5227 278.369 52.3294C262.859 61.1361 262.859 66.4201 262.859 70.9996C262.859 75.5791 264.622 88.2608 281.893 88.2608C295.711 88.2608 308.799 82.6245 313.617 79.8063Z" fill="black"/>
<path d="M316.789 91.7835C319.609 134.76 286.828 159.067 272.024 176.68C269.322 218.6 274.181 277.834 313.264 239.384C335.823 217.191 370.014 73.1132 328.421 49.159C328.421 49.159 336.88 60.0793 328.068 76.9882C319.256 93.8971 316.789 91.7835 316.789 91.7835Z" fill="black"/>
<path d="M282.951 164.351C299.282 175.036 326.447 211.273 315.732 235.509C305.016 259.745 290.353 195.233 282.951 164.351Z" fill="black"/>
<path d="M313.262 315.769C307.367 312.03 295.288 289.758 306.215 263.338C295.167 264.998 263.305 298.454 263.796 299.507C264.41 300.824 261.57 312.598 262.859 329.565C263.94 343.789 277.44 351.265 298.359 344.346C319.278 337.427 320.63 320.443 313.262 315.769Z" fill="black"/>
<path d="M191.306 330.974C201.175 318.997 203.408 309.603 205.405 303.145C216.567 302.675 237.058 304.483 236.776 305.61C236.423 307.02 238.186 320.053 243.12 333.44C248.055 346.826 233.251 354.223 211.397 351.405C189.543 348.587 185.758 337.706 191.306 330.974Z" fill="black"/>
<path d="M20 291.167C103.749 342.458 150.535 296.099 163.46 266.509C202.938 252.535 265.115 240.229 198.003 302.792C130.891 365.355 51.3708 321.11 20 291.167Z" fill="black"/>
<path d="M195.863 305.007C183.691 303.355 159.056 294.493 158.579 277.826C158.102 261.159 183.294 289.466 195.863 305.007Z" fill="black"/>
<path d="M244.53 305.258C235.278 318.267 217.499 325.254 205.7 312.304C193.773 299.213 227.964 301.383 244.53 305.258Z" fill="black"/>
<path d="M304.805 260.168C307.335 275.926 283.883 308.689 266.384 307.724C248.697 306.748 290.274 269.014 304.805 260.168Z" fill="black"/>
<path fill-rule="evenodd" clip-rule="evenodd" d="M123.288 218.32C123.982 220.633 127.335 220.273 129.622 220.195C135.099 219.648 127.637 220.363 127.859 220.361L140.635 219.152L147.234 218.32C146.776 221.871 146.541 225.492 146.541 229.168C146.541 231.755 146.657 234.314 146.886 236.841C145.631 236.995 144.62 237.124 143.65 237.247C141.322 237.543 139.227 237.809 134.556 238.327C133.698 238.422 132.872 238.5 132.087 238.573C127.066 239.043 123.693 239.358 123.982 243.259C124.687 252.77 129.269 267.918 131.737 271.44C134.237 275.01 138.704 275.142 140.549 273.906L148.713 267.041L153.635 263.032C166.6 292.467 195.949 313.008 230.079 313.008C276.215 313.008 313.617 275.472 313.617 229.168C313.617 198.255 296.946 171.249 272.135 156.712C274.291 152.748 276.568 147.401 279.078 141.453C281.062 136.751 280.919 134.202 279.078 133.351C269.909 129.115 260.04 125.601 252.637 123.488C249.116 122.482 248.522 126.65 247.968 130.53L247.968 130.531C247.882 131.133 247.797 131.727 247.703 132.294L245.767 146.804C241.089 145.912 236.274 145.412 231.355 145.338C230.953 140.114 230.228 131.173 229.726 126.658C229.162 121.585 225.026 121.022 223.029 121.374C215.627 122.548 199.906 125.108 196.241 125.954C192.575 126.799 192.833 131.003 193.421 132.999L203.183 149.768C198.511 151.362 194.024 153.36 189.764 155.72C187.86 153.688 184.287 150.347 180.847 147.13C177.788 144.269 174.834 141.506 173.251 139.85C169.724 136.159 166.094 138.218 164.72 139.708C159.547 145.129 148.602 156.694 146.201 159.588C143.8 162.482 146.557 165.668 148.235 166.899L164.72 176.68C160.76 181.302 159.285 184.216 156.394 189.631C154.108 188.907 152.029 188.128 149.801 187.292C146.885 186.199 143.714 185.01 139.491 183.726C138.929 183.555 138.383 183.38 137.855 183.211C133.744 181.895 130.708 180.923 129.622 184.782C129.065 186.759 128.455 188.898 127.826 191.101C124.87 201.454 122.106 214.373 123.288 218.32ZM262.859 226.35C262.859 243.86 248.814 258.054 231.489 258.054C214.163 258.054 200.118 243.86 200.118 226.35C200.118 208.84 214.163 194.646 231.489 194.646C248.814 194.646 262.859 208.84 262.859 226.35Z" fill="black"/>
<defs>
<linearGradient id="paint0_linear_7_23" x1="453.045" y1="12.4531" x2="4.80707" y2="394.394" gradientUnits="userSpaceOnUse">
<stop stop-color="#FF8D3A"/>
<stop offset="1" stop-color="#E32D00"/>
</linearGradient>
</defs>
</svg>
