<svg width="48" height="48" viewBox="0 0 48 48" fill="none" xmlns="http://www.w3.org/2000/svg">
<circle cx="24" cy="24" r="24" fill="white"/>
<path d="M21.1461 30.334C21.0232 28.7354 21.0232 27.1367 20.9002 25.4152C20.9002 24.5544 20.5313 23.9395 19.5475 23.9395C18.9327 23.9395 18.3178 24.0625 18.1948 23.2017C18.0719 22.0949 17.8259 20.8653 18.1948 19.7585C18.1948 19.6355 18.6867 19.3896 18.9327 19.3896C20.7772 19.7585 21.1461 18.7748 21.1461 17.2991C21.1461 13.3641 24.4663 11.2735 28.7703 11.5195C30 11.6425 30 12.6262 30 13.487C29.877 14.3478 30.3689 15.5775 28.7703 15.5775C27.4176 15.4546 26.4339 15.9465 26.4339 17.5451C26.4339 18.6518 26.5568 19.5126 27.9095 19.6355C29.877 19.7585 29.5081 21.1112 29.5081 22.4639C29.6311 23.9395 28.8933 24.4314 27.5406 24.4314C26.1879 24.4314 25.942 25.1692 25.942 26.3989C25.942 29.1043 25.942 31.6866 25.819 34.392C25.696 36.1136 25.3271 36.2365 22.9907 36.1136C21.3921 36.1136 21.1461 35.3758 21.2691 34.0231C21.0232 32.9164 21.0232 31.6866 21.1461 30.334Z" fill="black"/>
</svg>
