<svg width="48" height="48" viewBox="0 0 48 48" fill="none" xmlns="http://www.w3.org/2000/svg">
<g clip-path="url(#clip0_251_141)">
<path d="M24 48C37.2548 48 48 37.2548 48 24C48 10.7452 37.2548 0 24 0C10.7452 0 0 10.7452 0 24C0 37.2548 10.7452 48 24 48Z" fill="white"/>
<path d="M43.728 19.524C43.728 18.732 43.104 18.084 42.312 18.084C41.544 18.084 40.908 18.72 40.908 19.524C40.908 20.316 41.532 20.964 42.312 20.964C43.104 20.976 43.728 20.328 43.728 19.524ZM42.312 20.568C41.772 20.568 41.352 20.112 41.352 19.524C41.352 18.948 41.772 18.492 42.312 18.492C42.864 18.492 43.296 18.948 43.296 19.524C43.296 20.112 42.864 20.568 42.312 20.568Z" fill="black"/>
<path d="M42.696 19.6438C42.768 19.6198 42.924 19.5118 42.924 19.2838C42.924 19.0078 42.744 18.8398 42.444 18.8398H41.808V20.1958H42.228V19.7398H42.336L42.528 20.1958H42.984L42.732 19.7278C42.708 19.6558 42.696 19.6438 42.696 19.6438ZM42.336 19.4518H42.228V19.1278H42.336C42.432 19.1278 42.48 19.1758 42.48 19.2838C42.492 19.3918 42.432 19.4518 42.336 19.4518Z" fill="black"/>
<path d="M12.552 20.6405C13.1485 20.6405 13.632 20.1569 13.632 19.5605C13.632 18.964 13.1485 18.4805 12.552 18.4805C11.9555 18.4805 11.472 18.964 11.472 19.5605C11.472 20.1569 11.9555 20.6405 12.552 20.6405Z" fill="black"/>
<path d="M13.68 21.3483H8.736V21.0243C8.736 20.3883 9.372 20.3763 9.696 20.3763C10.068 20.3763 10.236 20.4123 10.236 20.4123V18.6603C10.236 18.6603 9.9 18.6123 9.444 18.6123C8.412 18.6123 6.504 18.9003 6.504 21.0843V21.3603H5.604V22.9803H6.504V26.4003H5.664V28.0203H9.72V26.4003H8.736V22.9803H11.436V26.4003H10.596V28.0203H14.52V26.4003H13.68V21.3483ZM22.08 21.3483H18.54V22.9683H19.14L18.372 25.3683C18.228 25.7643 18.192 26.2443 18.192 26.2443H18.144C18.144 26.2443 18.108 25.7643 17.964 25.3683L17.196 22.9683H17.796V21.3483H14.256V22.9683H15L16.848 28.0083H19.488L21.336 22.9683H22.08V21.3483ZM28.632 24.4083C28.632 22.5603 27.516 21.1923 25.536 21.1923C23.388 21.1923 22.068 22.7163 22.068 24.6723C22.068 26.4483 23.352 28.1643 25.728 28.1643C27.528 28.1643 28.596 27.2283 28.596 27.2283L27.78 25.6803C27.78 25.6803 26.892 26.3163 25.908 26.3163C25.2 26.3163 24.528 25.9443 24.36 25.0923H28.584C28.572 25.0803 28.632 24.6243 28.632 24.4083ZM24.408 23.8563C24.528 23.3403 24.84 22.8723 25.476 22.8723C25.968 22.8723 26.316 23.3283 26.316 23.8563H24.408ZM38.1 22.8843H38.076C38.076 22.8843 38.1 22.7523 38.1 22.5483V22.2003C38.1 21.5883 37.764 21.3483 37.152 21.3483H35.052V22.9683H35.676C35.856 22.9683 35.964 23.0763 35.964 23.2563V26.4003H35.064V28.0203H39.108V26.4003H38.208V25.4283C38.208 24.2163 38.808 23.4243 40.044 23.4243C40.32 23.4243 40.5 23.4603 40.5 23.4603V21.2643C40.5 21.2643 40.368 21.2403 40.236 21.2403C39.228 21.2283 38.388 21.9723 38.1 22.8843ZM32.184 22.8843H32.16C32.16 22.8843 32.184 22.7523 32.184 22.5483V22.2003C32.184 21.5883 31.848 21.3483 31.236 21.3483H29.136V22.9683H29.76C29.94 22.9683 30.048 23.0763 30.048 23.2563V26.4003H29.148V28.0203H33.192V26.4003H32.292V25.4283C32.292 24.2163 32.892 23.4243 34.128 23.4243C34.404 23.4243 34.584 23.4603 34.584 23.4603V21.2643C34.584 21.2643 34.452 21.2403 34.32 21.2403C33.3 21.2283 32.46 21.9723 32.184 22.8843Z" fill="black"/>
</g>
<defs>
<clipPath id="clip0_251_141">
<rect width="48" height="48" fill="white"/>
</clipPath>
</defs>
</svg>
