<svg width="999" height="521" viewBox="0 0 999 521" fill="none" xmlns="http://www.w3.org/2000/svg">
<path d="M61.5306 317.51C75.1224 317.51 87 320.265 97.1633 325.776C107.449 331.163 115.347 338.755 120.857 348.551C126.367 358.347 129.122 369.551 129.122 382.163C129.122 394.653 126.306 405.796 120.673 415.592C115.163 425.388 107.265 433.102 96.9796 438.735C86.8163 444.245 75 447 61.5306 447H10.2857V317.51H61.5306ZM58.7755 415.224C69.3061 415.224 77.5714 412.347 83.5714 406.592C89.5714 400.837 92.5714 392.694 92.5714 382.163C92.5714 371.51 89.5714 363.306 83.5714 357.551C77.5714 351.673 69.3061 348.735 58.7755 348.735H46.2857V415.224H58.7755ZM181.35 317.51V447H145.35V317.51H181.35ZM321.79 447H285.79L237.851 374.633V447H201.851V317.51H237.851L285.79 390.796V317.51H321.79V447ZM404.379 448.286C392.256 448.286 381.113 445.469 370.95 439.837C360.787 434.082 352.705 426.184 346.705 416.143C340.828 405.98 337.889 394.531 337.889 381.796C337.889 369.061 340.828 357.673 346.705 347.633C352.705 337.469 360.787 329.571 370.95 323.939C381.113 318.306 392.256 315.49 404.379 315.49C416.624 315.49 427.766 318.306 437.807 323.939C447.97 329.571 455.991 337.469 461.868 347.633C467.746 357.673 470.685 369.061 470.685 381.796C470.685 394.531 467.746 405.98 461.868 416.143C455.991 426.184 447.97 434.082 437.807 439.837C427.644 445.469 416.501 448.286 404.379 448.286ZM404.379 414.857C413.562 414.857 420.787 411.857 426.052 405.857C431.44 399.857 434.134 391.837 434.134 381.796C434.134 371.51 431.44 363.429 426.052 357.551C420.787 351.551 413.562 348.551 404.379 348.551C395.073 348.551 387.787 351.551 382.521 357.551C377.256 363.429 374.624 371.51 374.624 381.796C374.624 391.959 377.256 400.041 382.521 406.041C387.787 411.918 395.073 414.857 404.379 414.857ZM619.555 317.51V346.163H585.024V447H549.024V346.163H514.861V317.51H619.555ZM668.874 346.347V367.469H710.201V394.837H668.874V418.163H715.711V447H632.874V317.51H715.711V346.347H668.874ZM729.092 381.98C729.092 369.245 731.724 357.918 736.99 348C742.377 337.959 749.969 330.184 759.765 324.673C769.561 319.041 780.826 316.224 793.561 316.224C809.724 316.224 823.316 320.571 834.337 329.265C845.357 337.837 852.459 349.531 855.643 364.347H816.888C814.561 359.449 811.316 355.714 807.153 353.143C803.112 350.571 798.398 349.286 793.01 349.286C784.684 349.286 778.01 352.286 772.99 358.286C768.092 364.163 765.643 372.061 765.643 381.98C765.643 392.02 768.092 400.041 772.99 406.041C778.01 411.918 784.684 414.857 793.01 414.857C798.398 414.857 803.112 413.571 807.153 411C811.316 408.429 814.561 404.694 816.888 399.796H855.643C852.459 414.612 845.357 426.367 834.337 435.061C823.316 443.633 809.724 447.918 793.561 447.918C780.826 447.918 769.561 445.163 759.765 439.653C749.969 434.02 742.377 426.245 736.99 416.327C731.724 406.286 729.092 394.837 729.092 381.98ZM988.588 317.51V447H952.588V395.02H908.69V447H872.69V317.51H908.69V366.184H952.588V317.51H988.588Z" fill="white"/>
<path d="M606.876 53.3853C625.033 98.3613 586.386 148.345 564.793 167.715C561.168 223.935 564.51 321.351 606.876 261.257C659.834 186.14 654.16 67.5584 647.54 42.5193C640.921 17.4801 615.86 0 595.528 0C575.196 0 580.397 4.72436 559.592 16.5353C538.787 28.3462 538.787 35.4327 538.787 41.5744C538.787 47.7161 541.151 64.7238 564.32 64.7238C582.856 64.7238 600.414 57.1648 606.876 53.3853Z" fill="url(#paint0_linear_30_2)"/>
<path d="M611.132 69.4482C614.914 127.085 570.94 159.684 551.081 183.305C547.456 239.525 553.974 318.965 606.403 267.399C636.665 237.636 682.53 44.409 626.735 12.2833C626.735 12.2833 638.083 26.9289 626.262 49.6058C614.441 72.2828 611.132 69.4482 611.132 69.4482Z" fill="url(#paint1_linear_30_2)"/>
<path d="M565.739 166.77C587.647 181.101 624.087 229.699 609.713 262.202C595.339 294.706 575.669 208.187 565.739 166.77Z" fill="#B01F02"/>
<path d="M606.4 369.841C598.493 364.826 582.288 334.957 596.946 299.525C582.126 301.751 539.385 346.62 540.044 348.032C540.868 349.798 537.057 365.589 538.787 388.343C540.237 407.42 558.346 417.445 586.408 408.166C614.47 398.887 616.284 376.109 606.4 369.841Z" fill="url(#paint2_linear_30_2)"/>
<path d="M442.8 390.233C456.04 374.17 459.035 361.571 461.714 352.91C476.687 352.28 504.175 354.705 503.797 356.217C503.324 358.107 505.688 375.587 512.308 393.54C518.928 411.492 499.068 421.413 469.752 417.634C440.436 413.854 435.358 399.262 442.8 390.233Z" fill="url(#paint3_linear_30_2)"/>
<path d="M213 336.847C325.347 405.634 388.109 343.461 405.446 303.777C458.404 285.037 541.813 268.533 451.784 352.438C361.756 436.342 255.083 377.004 213 336.847Z" fill="url(#paint4_linear_30_2)"/>
<path d="M448.914 355.408C432.586 353.193 399.539 341.307 398.899 318.954C398.259 296.602 432.052 334.566 448.914 355.408Z" fill="#B01F02"/>
<path d="M514.199 355.745C501.788 373.191 477.938 382.562 462.109 365.193C446.11 347.638 491.976 350.548 514.199 355.745Z" fill="#951A01"/>
<path d="M595.055 295.273C598.449 316.407 566.99 360.346 543.515 359.052C519.788 357.743 575.563 307.137 595.055 295.273Z" fill="#B01F02"/>
<path fill-rule="evenodd" clip-rule="evenodd" d="M351.558 239.149C352.488 242.252 356.986 241.768 360.053 241.664C367.401 240.93 357.391 241.889 357.689 241.887L374.827 240.265L383.679 239.149C383.066 243.912 382.75 248.768 382.75 253.698C382.75 257.168 382.906 260.6 383.213 263.989C381.529 264.196 380.173 264.368 378.871 264.533C375.749 264.929 372.938 265.286 366.673 265.982C365.522 266.11 364.414 266.213 363.36 266.312C356.625 266.941 352.1 267.364 352.488 272.596C353.434 285.352 359.581 305.666 362.89 310.391C366.244 315.178 372.238 315.355 374.711 313.698L385.664 304.49L392.267 299.113C409.658 338.59 449.029 366.138 494.813 366.138C556.704 366.138 606.876 315.797 606.876 253.698C606.876 212.239 584.513 176.021 551.229 156.525C554.122 151.209 557.177 144.039 560.544 136.062C563.206 129.755 563.013 126.337 560.544 125.196C548.244 119.514 535.004 114.802 525.075 111.967C520.351 110.619 519.554 116.209 518.811 121.413L518.811 121.414C518.696 122.22 518.582 123.018 518.455 123.778L515.858 143.238C509.583 142.042 503.124 141.371 496.526 141.271C495.986 134.265 495.013 122.274 494.34 116.219C493.583 109.416 488.036 108.66 485.356 109.133C475.426 110.708 454.338 114.141 449.42 115.274C444.503 116.408 444.849 122.046 445.637 124.723L458.734 147.213C452.465 149.351 446.446 152.03 440.732 155.195C438.178 152.47 433.385 147.989 428.771 143.675C424.667 139.838 420.704 136.132 418.581 133.911C413.849 128.961 408.98 131.722 407.136 133.722C400.198 140.991 385.515 156.501 382.294 160.383C379.073 164.264 382.771 168.537 385.023 170.187L407.136 183.305C401.825 189.503 399.846 193.412 395.968 200.674C392.901 199.703 390.112 198.658 387.123 197.537C383.212 196.071 378.958 194.477 373.293 192.754C372.539 192.525 371.807 192.291 371.099 192.064C365.583 190.299 361.51 188.996 360.053 194.171C359.307 196.823 358.488 199.692 357.644 202.645C353.679 216.531 349.971 233.857 351.558 239.149ZM538.787 249.919C538.787 273.402 519.946 292.438 496.704 292.438C473.463 292.438 454.621 273.402 454.621 249.919C454.621 226.436 473.463 207.4 496.704 207.4C519.946 207.4 538.787 226.436 538.787 249.919Z" fill="url(#paint5_linear_30_2)"/>
<path d="M97.1633 325.776L95.3395 329.139L95.3635 329.152L95.3877 329.165L97.1633 325.776ZM120.857 348.551L124.192 346.675L120.857 348.551ZM120.673 415.592L117.356 413.684L117.347 413.7L117.338 413.716L120.673 415.592ZM96.9796 438.735L98.8034 442.099L98.8105 442.095L98.8175 442.091L96.9796 438.735ZM10.2857 447H6.45918V450.827H10.2857V447ZM10.2857 317.51V313.684H6.45918V317.51H10.2857ZM83.5714 357.551L80.8937 360.285L80.9081 360.299L80.9226 360.313L83.5714 357.551ZM46.2857 348.735V344.908H42.4592V348.735H46.2857ZM46.2857 415.224H42.4592V419.051H46.2857V415.224ZM61.5306 321.337C74.5976 321.337 85.8271 323.982 95.3395 329.139L98.9871 322.412C88.1729 316.548 75.6473 313.684 61.5306 313.684V321.337ZM95.3877 329.165C105.041 334.222 112.387 341.298 117.522 350.427L124.192 346.675C118.307 336.212 109.857 328.105 98.9388 322.386L95.3877 329.165ZM117.522 350.427C122.672 359.583 125.296 370.126 125.296 382.163H132.949C132.949 368.976 130.062 357.111 124.192 346.675L117.522 350.427ZM125.296 382.163C125.296 394.056 122.621 404.528 117.356 413.684L123.991 417.499C129.991 407.063 132.949 395.25 132.949 382.163H125.296ZM117.338 413.716C112.195 422.86 104.828 430.074 95.1416 435.378L98.8175 442.091C109.702 436.13 118.132 427.915 124.009 417.468L117.338 413.716ZM95.1558 435.371C85.6385 440.531 74.4687 443.173 61.5306 443.173V450.827C75.5313 450.827 87.9941 447.959 98.8034 442.099L95.1558 435.371ZM61.5306 443.173H10.2857V450.827H61.5306V443.173ZM14.1122 447V317.51H6.45918V447H14.1122ZM10.2857 321.337H61.5306V313.684H10.2857V321.337ZM58.7755 419.051C70.0183 419.051 79.3313 415.961 86.2202 409.353L80.9226 403.83C75.8116 408.733 68.5939 411.398 58.7755 411.398V419.051ZM86.2202 409.353C93.1614 402.696 96.398 393.442 96.398 382.163H88.7449C88.7449 391.946 85.9815 398.978 80.9226 403.83L86.2202 409.353ZM96.398 382.163C96.398 370.777 93.1699 361.455 86.2202 354.789L80.9226 360.313C85.973 365.157 88.7449 372.243 88.7449 382.163H96.398ZM86.2492 354.818C79.3634 348.072 70.0401 344.908 58.7755 344.908V352.561C68.5722 352.561 75.7795 355.275 80.8937 360.285L86.2492 354.818ZM58.7755 344.908H46.2857V352.561H58.7755V344.908ZM42.4592 348.735V415.224H50.1122V348.735H42.4592ZM46.2857 419.051H58.7755V411.398H46.2857V419.051ZM181.35 317.51H185.177V313.684H181.35V317.51ZM181.35 447V450.827H185.177V447H181.35ZM145.35 447H141.524V450.827H145.35V447ZM145.35 317.51V313.684H141.524V317.51H145.35ZM177.524 317.51V447H185.177V317.51H177.524ZM181.35 443.173H145.35V450.827H181.35V443.173ZM149.177 447V317.51H141.524V447H149.177ZM145.35 321.337H181.35V313.684H145.35V321.337ZM321.79 447V450.827H325.617V447H321.79ZM285.79 447L282.6 449.113L283.735 450.827H285.79V447ZM237.851 374.633L241.041 372.519L234.025 361.927V374.633H237.851ZM237.851 447V450.827H241.678V447H237.851ZM201.851 447H198.025V450.827H201.851V447ZM201.851 317.51V313.684H198.025V317.51H201.851ZM237.851 317.51L241.054 315.415L239.921 313.684H237.851V317.51ZM285.79 390.796L282.588 392.891L289.617 403.636V390.796H285.79ZM285.79 317.51V313.684H281.964V317.51H285.79ZM321.79 317.51H325.617V313.684H321.79V317.51ZM321.79 443.173H285.79V450.827H321.79V443.173ZM288.98 444.887L241.041 372.519L234.661 376.746L282.6 449.113L288.98 444.887ZM234.025 374.633V447H241.678V374.633H234.025ZM237.851 443.173H201.851V450.827H237.851V443.173ZM205.678 447V317.51H198.025V447H205.678ZM201.851 321.337H237.851V313.684H201.851V321.337ZM234.649 319.605L282.588 392.891L288.992 388.701L241.054 315.415L234.649 319.605ZM289.617 390.796V317.51H281.964V390.796H289.617ZM285.79 321.337H321.79V313.684H285.79V321.337ZM317.964 317.51V447H325.617V317.51H317.964ZM370.95 439.837L369.065 443.166L369.08 443.175L369.095 443.184L370.95 439.837ZM346.705 416.143L343.393 418.059L343.406 418.082L343.42 418.106L346.705 416.143ZM346.705 347.633L343.41 345.687L343.406 345.693L343.403 345.7L346.705 347.633ZM437.807 323.939L435.935 327.276L435.944 327.281L435.952 327.286L437.807 323.939ZM461.868 347.633L458.556 349.548L458.561 349.557L458.566 349.566L461.868 347.633ZM461.868 416.143L465.171 418.076L465.176 418.067L465.181 418.059L461.868 416.143ZM437.807 439.837L439.662 443.184L439.677 443.175L439.693 443.166L437.807 439.837ZM426.052 405.857L423.205 403.301L423.19 403.317L423.176 403.333L426.052 405.857ZM426.052 357.551L423.176 360.075L423.203 360.106L423.231 360.137L426.052 357.551ZM382.521 357.551L385.372 360.104L385.385 360.09L385.398 360.075L382.521 357.551ZM382.521 406.041L379.645 408.565L379.658 408.579L379.671 408.594L382.521 406.041ZM404.379 444.459C392.876 444.459 382.376 441.794 372.805 436.49L369.095 443.184C379.851 449.145 391.636 452.112 404.379 452.112V444.459ZM372.836 436.507C363.25 431.079 355.65 423.653 349.99 414.18L343.42 418.106C349.76 428.715 358.323 437.084 369.065 443.166L372.836 436.507ZM350.018 414.227C344.505 404.695 341.715 393.917 341.715 381.796H334.062C334.062 395.145 337.15 407.264 343.393 418.059L350.018 414.227ZM341.715 381.796C341.715 369.675 344.505 358.966 350.008 349.566L343.403 345.7C337.15 356.381 334.062 368.448 334.062 381.796H341.715ZM350 349.578C355.659 339.992 363.248 332.582 372.805 327.286L369.095 320.592C358.326 326.56 349.751 334.947 343.41 345.687L350 349.578ZM372.805 327.286C382.376 321.981 392.876 319.316 404.379 319.316V311.663C391.636 311.663 379.851 314.631 369.095 320.592L372.805 327.286ZM404.379 319.316C416.011 319.316 426.503 321.985 435.935 327.276L439.679 320.601C429.03 314.628 417.236 311.663 404.379 311.663V319.316ZM435.952 327.286C445.502 332.578 453.022 339.979 458.556 349.548L465.181 345.717C458.96 334.96 450.439 326.564 439.662 320.592L435.952 327.286ZM458.566 349.566C464.068 358.966 466.858 369.675 466.858 381.796H474.511C474.511 368.448 471.424 356.381 465.171 345.7L458.566 349.566ZM466.858 381.796C466.858 393.917 464.069 404.695 458.556 414.227L465.181 418.059C471.423 407.264 474.511 395.145 474.511 381.796H466.858ZM458.566 414.21C453.031 423.666 445.5 431.083 435.922 436.507L439.693 443.166C450.441 437.08 458.951 428.701 465.171 418.076L458.566 414.21ZM435.952 436.49C426.382 441.794 415.881 444.459 404.379 444.459V452.112C417.121 452.112 428.906 449.145 439.662 443.184L435.952 436.49ZM404.379 418.684C414.48 418.684 422.823 415.338 428.928 408.381L423.176 403.333C418.75 408.377 412.644 411.031 404.379 411.031V418.684ZM428.899 408.414C435.062 401.551 437.96 392.54 437.96 381.796H430.307C430.307 391.134 427.818 398.163 423.205 403.301L428.899 408.414ZM437.96 381.796C437.96 370.839 435.078 361.735 428.873 354.965L423.231 360.137C427.802 365.123 430.307 372.181 430.307 381.796H437.96ZM428.928 355.027C422.823 348.071 414.48 344.724 404.379 344.724V352.378C412.644 352.378 418.75 355.032 423.176 360.075L428.928 355.027ZM404.379 344.724C394.172 344.724 385.76 348.059 379.645 355.027L385.398 360.075C389.813 355.043 395.973 352.378 404.379 352.378V344.724ZM379.671 354.998C373.606 361.768 370.797 370.861 370.797 381.796H378.45C378.45 372.16 380.906 365.089 385.372 360.104L379.671 354.998ZM370.797 381.796C370.797 392.627 373.615 401.693 379.645 408.565L385.398 403.517C380.898 398.389 378.45 391.292 378.45 381.796H370.797ZM379.671 408.594C385.794 415.428 394.198 418.684 404.379 418.684V411.031C395.947 411.031 389.78 408.408 385.372 403.488L379.671 408.594ZM619.555 317.51H623.382V313.684H619.555V317.51ZM619.555 346.163V349.99H623.382V346.163H619.555ZM585.024 346.163V342.337H581.198V346.163H585.024ZM585.024 447V450.827H588.851V447H585.024ZM549.024 447H545.198V450.827H549.024V447ZM549.024 346.163H552.851V342.337H549.024V346.163ZM514.861 346.163H511.035V349.99H514.861V346.163ZM514.861 317.51V313.684H511.035V317.51H514.861ZM615.728 317.51V346.163H623.382V317.51H615.728ZM619.555 342.337H585.024V349.99H619.555V342.337ZM581.198 346.163V447H588.851V346.163H581.198ZM585.024 443.173H549.024V450.827H585.024V443.173ZM552.851 447V346.163H545.198V447H552.851ZM549.024 342.337H514.861V349.99H549.024V342.337ZM518.688 346.163V317.51H511.035V346.163H518.688ZM514.861 321.337H619.555V313.684H514.861V321.337ZM668.874 346.347V342.52H665.048V346.347H668.874ZM668.874 367.469H665.048V371.296H668.874V367.469ZM710.201 367.469H714.027V363.643H710.201V367.469ZM710.201 394.837V398.663H714.027V394.837H710.201ZM668.874 394.837V391.01H665.048V394.837H668.874ZM668.874 418.163H665.048V421.99H668.874V418.163ZM715.711 418.163H719.537V414.337H715.711V418.163ZM715.711 447V450.827H719.537V447H715.711ZM632.874 447H629.048V450.827H632.874V447ZM632.874 317.51V313.684H629.048V317.51H632.874ZM715.711 317.51H719.537V313.684H715.711V317.51ZM715.711 346.347V350.173H719.537V346.347H715.711ZM665.048 346.347V367.469H672.701V346.347H665.048ZM668.874 371.296H710.201V363.643H668.874V371.296ZM706.374 367.469V394.837H714.027V367.469H706.374ZM710.201 391.01H668.874V398.663H710.201V391.01ZM665.048 394.837V418.163H672.701V394.837H665.048ZM668.874 421.99H715.711V414.337H668.874V421.99ZM711.884 418.163V447H719.537V418.163H711.884ZM715.711 443.173H632.874V450.827H715.711V443.173ZM636.701 447V317.51H629.048V447H636.701ZM632.874 321.337H715.711V313.684H632.874V321.337ZM711.884 317.51V346.347H719.537V317.51H711.884ZM715.711 342.52H668.874V350.173H715.711V342.52ZM736.99 348L733.618 346.191L733.614 346.198L733.61 346.206L736.99 348ZM759.765 324.673L761.641 328.009L761.657 328L761.673 327.991L759.765 324.673ZM834.337 329.265L831.967 332.27L831.977 332.278L831.987 332.286L834.337 329.265ZM855.643 364.347V368.173H860.379L859.384 363.543L855.643 364.347ZM816.888 364.347L813.431 365.989L814.469 368.173H816.888V364.347ZM807.153 353.143L805.099 356.371L805.12 356.385L805.142 356.398L807.153 353.143ZM772.99 358.286L770.055 355.83L770.05 355.836L772.99 358.286ZM772.99 406.041L770.026 408.461L770.052 408.494L770.08 408.526L772.99 406.041ZM807.153 411L805.142 407.744L805.12 407.758L805.099 407.772L807.153 411ZM816.888 399.796V395.969H814.469L813.431 398.154L816.888 399.796ZM855.643 399.796L859.384 400.6L860.379 395.969H855.643V399.796ZM834.337 435.061L836.686 438.082L836.696 438.074L836.707 438.065L834.337 435.061ZM759.765 439.653L757.858 442.97L757.874 442.979L757.889 442.988L759.765 439.653ZM736.99 416.327L733.601 418.104L733.614 418.128L733.627 418.153L736.99 416.327ZM732.918 381.98C732.918 369.786 735.435 359.09 740.37 349.794L733.61 346.206C728.014 356.747 725.265 368.704 725.265 381.98H732.918ZM740.362 349.809C745.411 340.399 752.488 333.157 761.641 328.009L757.889 321.338C747.451 327.21 739.344 335.519 733.618 346.191L740.362 349.809ZM761.673 327.991C770.818 322.732 781.409 320.051 793.561 320.051V312.398C780.244 312.398 768.305 315.349 757.858 321.356L761.673 327.991ZM793.561 320.051C809.001 320.051 821.721 324.187 831.967 332.27L836.707 326.261C824.911 316.956 810.448 312.398 793.561 312.398V320.051ZM831.987 332.286C842.235 340.256 848.89 351.133 851.902 365.151L859.384 363.543C856.029 347.928 848.479 335.417 836.686 326.245L831.987 332.286ZM855.643 360.52H816.888V368.173H855.643V360.52ZM820.344 362.705C817.737 357.216 814.021 352.887 809.164 349.887L805.142 356.398C808.611 358.541 811.386 361.682 813.431 365.989L820.344 362.705ZM809.207 349.915C804.478 346.905 799.032 345.459 793.01 345.459V353.112C797.764 353.112 801.746 354.238 805.099 356.371L809.207 349.915ZM793.01 345.459C783.634 345.459 775.854 348.899 770.055 355.83L775.924 360.741C780.166 355.672 785.733 353.112 793.01 353.112V345.459ZM770.05 355.836C764.427 362.583 761.816 371.436 761.816 381.98H769.469C769.469 372.687 771.756 365.743 775.929 360.735L770.05 355.836ZM761.816 381.98C761.816 392.637 764.423 401.597 770.026 408.461L775.954 403.621C771.761 398.484 769.469 391.403 769.469 381.98H761.816ZM770.08 408.526C775.889 415.327 783.662 418.684 793.01 418.684V411.031C785.705 411.031 780.131 408.51 775.899 403.556L770.08 408.526ZM793.01 418.684C799.032 418.684 804.478 417.238 809.207 414.228L805.099 407.772C801.746 409.905 797.764 411.031 793.01 411.031V418.684ZM809.164 414.256C814.021 411.256 817.737 406.927 820.344 401.438L813.431 398.154C811.386 402.461 808.611 405.602 805.142 407.744L809.164 414.256ZM816.888 403.622H855.643V395.969H816.888V403.622ZM851.902 398.992C848.889 413.012 842.23 423.96 831.967 432.057L836.707 438.065C848.484 428.775 856.029 416.212 859.384 400.6L851.902 398.992ZM831.987 432.041C821.742 440.01 809.014 444.092 793.561 444.092V451.745C810.435 451.745 824.891 447.256 836.686 438.082L831.987 432.041ZM793.561 444.092C781.395 444.092 770.792 441.465 761.641 436.318L757.889 442.988C768.331 448.861 780.258 451.745 793.561 451.745V444.092ZM761.673 436.336C752.49 431.056 745.402 423.796 740.352 414.5L733.627 418.153C739.353 428.694 747.449 436.985 757.858 442.97L761.673 436.336ZM740.379 414.549C735.437 405.127 732.918 394.302 732.918 381.98H725.265C725.265 395.372 728.012 407.445 733.601 418.104L740.379 414.549ZM988.588 317.51H992.414V313.684H988.588V317.51ZM988.588 447V450.827H992.414V447H988.588ZM952.588 447H948.761V450.827H952.588V447ZM952.588 395.02H956.414V391.194H952.588V395.02ZM908.69 395.02V391.194H904.863V395.02H908.69ZM908.69 447V450.827H912.517V447H908.69ZM872.69 447H868.863V450.827H872.69V447ZM872.69 317.51V313.684H868.863V317.51H872.69ZM908.69 317.51H912.517V313.684H908.69V317.51ZM908.69 366.184H904.863V370.01H908.69V366.184ZM952.588 366.184V370.01H956.414V366.184H952.588ZM952.588 317.51V313.684H948.761V317.51H952.588ZM984.761 317.51V447H992.414V317.51H984.761ZM988.588 443.173H952.588V450.827H988.588V443.173ZM956.414 447V395.02H948.761V447H956.414ZM952.588 391.194H908.69V398.847H952.588V391.194ZM904.863 395.02V447H912.517V395.02H904.863ZM908.69 443.173H872.69V450.827H908.69V443.173ZM876.517 447V317.51H868.863V447H876.517ZM872.69 321.337H908.69V313.684H872.69V321.337ZM904.863 317.51V366.184H912.517V317.51H904.863ZM908.69 370.01H952.588V362.357H908.69V370.01ZM956.414 366.184V317.51H948.761V366.184H956.414ZM952.588 321.337H988.588V313.684H952.588V321.337Z" fill="url(#paint6_linear_30_2)"/>
<defs>
<linearGradient id="paint0_linear_30_2" x1="494.875" y1="5.64472" x2="466.071" y2="376.583" gradientUnits="userSpaceOnUse">
<stop stop-color="#FF7452"/>
<stop offset="1" stop-color="#CE310B"/>
</linearGradient>
<linearGradient id="paint1_linear_30_2" x1="585.073" y1="-5.09145" x2="558.645" y2="377.026" gradientUnits="userSpaceOnUse">
<stop stop-color="#F45C37" stop-opacity="0.24"/>
<stop offset="1" stop-color="#E03209"/>
</linearGradient>
<linearGradient id="paint2_linear_30_2" x1="494.875" y1="5.64472" x2="511.802" y2="403.426" gradientUnits="userSpaceOnUse">
<stop stop-color="#E62D00"/>
<stop offset="1" stop-color="#BC2C09"/>
</linearGradient>
<linearGradient id="paint3_linear_30_2" x1="494.875" y1="5.64472" x2="466.071" y2="376.583" gradientUnits="userSpaceOnUse">
<stop stop-color="#E62D00"/>
<stop offset="1" stop-color="#B62806"/>
</linearGradient>
<linearGradient id="paint4_linear_30_2" x1="531.855" y1="106.111" x2="348.877" y2="392.085" gradientUnits="userSpaceOnUse">
<stop stop-color="#E62D00"/>
<stop offset="1" stop-color="#C22C07"/>
</linearGradient>
<linearGradient id="paint5_linear_30_2" x1="423.414" y1="356.217" x2="564.662" y2="202.083" gradientUnits="userSpaceOnUse">
<stop offset="0.152555" stop-color="#DE5F00"/>
<stop offset="1" stop-color="#FFA126"/>
</linearGradient>
<linearGradient id="paint6_linear_30_2" x1="499.5" y1="245" x2="499.5" y2="521" gradientUnits="userSpaceOnUse">
<stop stop-color="white"/>
<stop offset="1" stop-color="white" stop-opacity="0"/>
</linearGradient>
</defs>
</svg>
