<svg width="42" height="48" viewBox="0 0 42 48" fill="none" xmlns="http://www.w3.org/2000/svg">
<path d="M20.8765 27.1542C21.7781 27.1542 22.6707 26.9766 23.5036 26.6316C24.3365 26.2866 25.0933 25.781 25.7308 25.1435C26.3682 24.506 26.8739 23.7493 27.2189 22.9164C27.5639 22.0835 27.7414 21.1908 27.7414 20.2893C27.7414 19.3878 27.5639 18.4951 27.2189 17.6622C26.8739 16.8293 26.3682 16.0725 25.7308 15.4351C25.0933 14.7976 24.3365 14.2919 23.5036 13.9469C22.6707 13.602 21.7781 13.4244 20.8765 13.4244C19.0559 13.4244 17.3097 14.1476 16.0223 15.4351C14.7349 16.7225 14.0116 18.4686 14.0116 20.2893C14.0116 22.11 14.7349 23.8561 16.0223 25.1435C17.3097 26.4309 19.0559 27.1542 20.8765 27.1542Z" stroke="white" stroke-width="3.30043"/>
<path d="M2.43812 16.2848C6.77269 -2.76974 35.0024 -2.74774 39.315 16.3068C41.8453 27.4842 34.8924 36.9455 28.7976 42.7982C26.6679 44.8523 23.8244 46.0001 20.8655 46.0001C17.9067 46.0001 15.0632 44.8523 12.9335 42.7982C6.86071 36.9455 -0.0922073 27.4622 2.43812 16.2848Z" stroke="white" stroke-width="3.30043"/>
</svg>
