<svg width="416" height="396" viewBox="0 0 416 396" fill="none" xmlns="http://www.w3.org/2000/svg">
<path d="M372.392 50.4378C389.559 92.9306 353.02 140.155 332.605 158.455C329.177 211.571 332.336 303.609 372.392 246.833C422.461 175.863 417.097 63.8284 410.838 40.1717C404.579 16.515 380.886 0 361.663 0C342.44 0 347.357 4.46353 327.687 15.6223C308.017 26.7812 308.017 33.4764 308.017 39.279C308.017 45.0816 310.252 61.1503 332.157 61.1503C349.682 61.1503 366.282 54.0087 372.392 50.4378Z" fill="url(#paint0_linear_2_65)"/>
<path d="M376.415 65.6138C379.992 120.069 338.416 150.867 319.64 173.185C316.213 226.301 322.376 301.354 371.945 252.636C400.556 224.515 443.92 41.9571 391.168 11.6052C391.168 11.6052 401.897 25.4421 390.721 46.867C379.545 68.2919 376.415 65.6138 376.415 65.6138Z" fill="url(#paint1_linear_2_65)"/>
<path d="M333.499 157.562C354.212 171.102 388.664 217.017 375.074 247.726C361.484 278.435 342.887 196.693 333.499 157.562Z" fill="#B01F02"/>
<path d="M371.942 349.421C364.466 344.684 349.145 316.464 363.004 282.988C348.992 285.09 308.582 327.482 309.205 328.817C309.984 330.485 306.381 345.404 308.017 366.902C309.388 384.926 326.509 394.397 353.04 385.631C379.572 376.864 381.287 355.344 371.942 349.421Z" fill="url(#paint2_linear_2_65)"/>
<path d="M217.266 368.687C229.783 353.511 232.615 341.609 235.148 333.425C249.304 332.83 275.293 335.122 274.935 336.55C274.488 338.335 276.723 354.85 282.982 371.812C289.241 388.773 270.465 398.147 242.748 394.576C215.031 391.005 210.23 377.218 217.266 368.687Z" fill="url(#paint3_linear_2_65)"/>
<path d="M0 318.249C106.219 383.238 165.557 324.498 181.949 287.005C232.018 269.299 310.878 253.707 225.76 332.979C140.642 412.251 39.7874 356.189 0 318.249Z" fill="url(#paint4_linear_2_65)"/>
<path d="M223.046 335.786C207.608 333.692 176.364 322.463 175.759 301.344C175.154 280.226 207.104 316.094 223.046 335.786Z" fill="#B01F02"/>
<path d="M284.77 336.104C273.036 352.586 250.487 361.44 235.521 345.031C220.395 328.444 263.759 331.194 284.77 336.104Z" fill="#951A01"/>
<path d="M361.216 278.971C364.425 298.938 334.681 340.451 312.487 339.228C290.054 337.992 342.787 290.179 361.216 278.971Z" fill="#B01F02"/>
<path fill-rule="evenodd" clip-rule="evenodd" d="M131 225.945C131.88 228.877 136.132 228.42 139.032 228.321C145.979 227.628 136.515 228.534 136.797 228.533L153 227L161.369 225.945C160.79 230.445 160.491 235.033 160.491 239.691C160.491 242.969 160.639 246.212 160.928 249.414C159.337 249.609 158.055 249.772 156.824 249.928C153.871 250.302 151.214 250.639 145.291 251.297C144.202 251.417 143.155 251.515 142.159 251.608C135.791 252.203 131.513 252.603 131.88 257.545C132.774 269.597 138.585 288.79 141.715 293.254C144.886 297.777 150.552 297.944 152.891 296.378L163.246 287.679L169.488 282.599C185.932 319.896 223.155 345.923 266.441 345.923C324.956 345.923 372.392 298.362 372.392 239.691C372.392 200.521 351.248 166.303 319.78 147.883C322.515 142.861 325.404 136.086 328.587 128.55C331.103 122.591 330.922 119.361 328.587 118.283C316.958 112.915 304.44 108.464 295.052 105.786C290.587 104.512 289.832 109.793 289.13 114.709L289.13 114.71C289.021 115.472 288.914 116.226 288.794 116.944L286.339 135.33C280.406 134.2 274.299 133.565 268.06 133.472C267.551 126.853 266.631 115.523 265.994 109.803C265.279 103.375 260.034 102.661 257.5 103.107C248.112 104.595 228.174 107.839 223.525 108.91C218.875 109.981 219.203 115.308 219.948 117.837L232.33 139.085C226.404 141.105 220.713 143.636 215.311 146.626C212.896 144.052 208.364 139.819 204.001 135.742C200.122 132.117 196.375 128.616 194.367 126.518C189.894 121.841 185.29 124.45 183.547 126.339C176.987 133.207 163.105 147.86 160.06 151.528C157.014 155.195 160.511 159.231 162.64 160.791L183.547 173.185C178.525 179.041 176.654 182.733 172.988 189.595C170.089 188.677 167.451 187.69 164.626 186.631C160.927 185.246 156.906 183.739 151.55 182.112C150.837 181.895 150.145 181.674 149.475 181.46C144.261 179.793 140.41 178.561 139.032 183.451C138.327 185.956 137.552 188.666 136.755 191.457C133.006 204.576 129.5 220.945 131 225.945ZM308.017 236.121C308.017 258.307 290.203 276.292 268.229 276.292C246.255 276.292 228.442 258.307 228.442 236.121C228.442 213.934 246.255 195.949 268.229 195.949C290.203 195.949 308.017 213.934 308.017 236.121Z" fill="url(#paint5_linear_2_65)"/>
<defs>
<linearGradient id="paint0_linear_2_65" x1="266.5" y1="5.33307" x2="239.305" y2="355.794" gradientUnits="userSpaceOnUse">
<stop stop-color="#FF7452"/>
<stop offset="1" stop-color="#CE310B"/>
</linearGradient>
<linearGradient id="paint1_linear_2_65" x1="351.778" y1="-4.81034" x2="326.827" y2="356.212" gradientUnits="userSpaceOnUse">
<stop stop-color="#F45C37" stop-opacity="0.24"/>
<stop offset="1" stop-color="#E03209"/>
</linearGradient>
<linearGradient id="paint2_linear_2_65" x1="266.5" y1="5.33307" x2="282.482" y2="381.153" gradientUnits="userSpaceOnUse">
<stop stop-color="#E62D00"/>
<stop offset="1" stop-color="#BC2C09"/>
</linearGradient>
<linearGradient id="paint3_linear_2_65" x1="266.5" y1="5.33307" x2="239.305" y2="355.794" gradientUnits="userSpaceOnUse">
<stop stop-color="#E62D00"/>
<stop offset="1" stop-color="#B62806"/>
</linearGradient>
<linearGradient id="paint4_linear_2_65" x1="301.463" y1="100.253" x2="128.639" y2="370.548" gradientUnits="userSpaceOnUse">
<stop stop-color="#E62D00"/>
<stop offset="1" stop-color="#C22C07"/>
</linearGradient>
<linearGradient id="paint5_linear_2_65" x1="198.937" y1="336.55" x2="332.378" y2="190.832" gradientUnits="userSpaceOnUse">
<stop offset="0.152555" stop-color="#DE5F00"/>
<stop offset="1" stop-color="#FFA126"/>
</linearGradient>
</defs>
</svg>
