<svg width="48" height="48" viewBox="0 0 48 48" fill="none" xmlns="http://www.w3.org/2000/svg">
<g clip-path="url(#clip0_251_155)">
<rect width="48" height="48" fill="black"/>
<circle cx="24" cy="24" r="24" fill="white"/>
<path d="M13.9801 36.5691C14.1013 35.7206 13.9801 35.2358 14.2225 34.8721C15.1922 32.6904 14.7073 30.7512 13.7377 28.5695C11.7984 23.9636 11.9196 19.3577 15.677 15.6003C19.4344 11.8429 24.0403 11.2369 28.8885 12.8126C33.7368 14.3883 36.767 20.9334 35.9185 26.1453C34.7065 32.4481 28.1613 36.6902 21.3737 34.8721C20.1617 34.5085 19.0708 34.6297 17.9799 35.1146C16.6467 35.7206 15.5558 36.0842 13.9801 36.5691ZM23.1918 20.4486C20.8889 22.6303 19.192 24.6908 17.4951 26.8725C18.7072 27.2362 19.192 26.5089 19.798 26.1453C22.2222 24.9333 22.2221 24.9332 23.919 26.8725C24.1615 27.1149 24.4039 27.4785 25.0099 27.2361C26.4644 24.9332 28.8885 23.2364 30.2218 20.085C29.1309 20.5698 28.5249 20.8122 27.9189 21.1758C27.0704 21.7818 26.222 22.3879 25.1311 23.3575C24.6463 22.5091 23.9191 21.5395 23.1918 20.4486Z" fill="black"/>
</g>
<defs>
<clipPath id="clip0_251_155">
<rect width="48" height="48" fill="white"/>
</clipPath>
</defs>
</svg>
