<svg width="203" height="117" viewBox="0 0 203 117" fill="none" xmlns="http://www.w3.org/2000/svg">
<path fill-rule="evenodd" clip-rule="evenodd" d="M181.421 45.3982C184.406 48.3427 186.277 50.934 187.39 53.1504C156.227 79.1699 141.209 91.4221 130.449 97.541C125.278 100.482 121.578 101.689 117.729 102.31C113.382 103.012 108.513 103.047 100.137 103.047C86.71 103.047 63.7943 97.2987 44.1321 87.4108C34.4199 82.5267 26.3353 77.0384 20.8756 71.4881C17.9219 68.4853 16.0781 65.8293 14.9993 63.5406C45.4023 37.4445 59.9078 25.223 70.3625 19.1254C75.3413 16.2216 78.9028 15.0391 82.6523 14.4273C86.9223 13.7307 91.7514 13.694 100.137 13.694C112.886 13.694 134.632 18.8653 154.105 27.8364L169.618 20.3158C146.954 7.87669 117.836 0 100.137 0C90.9226 0 84.3464 0 78.0661 1.36325C62.4136 4.76091 48.5993 16.6267 0.354961 58.0658L0 58.3707C0 90.6079 67.9001 116.741 100.137 116.741C132.375 116.741 132.661 116.741 202.5 58.3707C202.5 45.9293 192.055 34.3971 177.375 24.9254L162.602 32.0871C170.309 36.279 176.777 40.8162 181.421 45.3982Z" fill="#EF592D"/>
<path fill-rule="evenodd" clip-rule="evenodd" d="M122.565 51.4967C123.23 53.6705 123.588 55.9787 123.588 58.3706C123.588 71.3222 113.089 81.8215 100.137 81.8215C87.1857 81.8215 76.6864 71.3222 76.6864 58.3706C76.6864 45.4189 87.1857 34.9196 100.137 34.9196C108.008 34.9196 114.973 38.7967 119.226 44.7451L131.662 38.7162C125.1 28.2129 113.435 21.2256 100.137 21.2256C79.6228 21.2256 62.9924 37.856 62.9924 58.3706C62.9924 78.8852 79.6228 95.5155 100.137 95.5155C120.652 95.5155 137.282 78.8852 137.282 58.3706C137.282 53.8369 136.47 49.493 134.983 45.4763L122.565 51.4967Z" fill="#EF592D"/>
<path fill-rule="evenodd" clip-rule="evenodd" d="M106.761 59.1583L108.481 62.8055L93.4189 61.5555L102.033 49.1361L103.547 52.3462L110.271 49.0865C107.94 46.8834 104.796 45.5325 101.336 45.5325C94.1507 45.5325 88.3263 51.3569 88.3263 58.5418C88.3263 65.7266 94.1507 71.5511 101.336 71.5511C108.52 71.5511 114.345 65.7266 114.345 58.5418C114.345 57.544 114.233 56.5725 114.02 55.6391L106.761 59.1583Z" fill="#EF592D"/>
</svg>
