<svg width="1400" height="1369" viewBox="0 0 1400 1369" fill="none" xmlns="http://www.w3.org/2000/svg">
<g filter="url(#filter0_f_9_5)">
<path d="M937.104 472.596C961.863 533.756 909.163 601.726 879.718 628.066C874.775 704.516 879.331 836.987 937.104 755.268C1009.32 653.121 1001.58 491.869 992.555 457.819C983.528 423.77 949.355 400 921.629 400C893.903 400 900.996 406.424 872.625 422.485C844.255 438.546 844.255 448.183 844.255 456.535C844.255 464.886 847.479 488.014 879.073 488.014C904.349 488.014 928.292 477.735 937.104 472.596Z" fill="url(#paint0_linear_9_5)"/>
<path d="M942.907 494.438C948.065 572.816 888.1 617.144 861.019 649.266C856.076 725.716 864.965 833.741 936.459 763.62C977.725 723.146 1040.27 460.389 964.185 416.703C964.185 416.703 979.659 436.619 963.54 467.456C947.42 498.293 942.907 494.438 942.907 494.438Z" fill="url(#paint1_linear_9_5)"/>
<path d="M881.008 626.781C910.883 646.268 960.574 712.354 940.972 756.553C921.371 800.753 894.548 683.101 881.008 626.781Z" fill="#B01F02"/>
<path d="M936.455 902.925C925.672 896.106 903.575 855.489 923.563 807.306C903.354 810.333 845.07 871.348 845.969 873.268C847.092 875.669 841.896 897.143 844.255 928.084C846.233 954.026 870.926 967.659 909.193 955.041C947.46 942.422 949.933 911.448 936.455 902.925Z" fill="url(#paint2_linear_9_5)"/>
<path d="M713.364 930.654C731.418 908.811 735.502 891.679 739.156 879.901C759.574 879.045 797.057 882.343 796.541 884.399C795.896 886.968 799.12 910.738 808.147 935.151C817.174 959.564 790.093 973.055 750.117 967.916C710.14 962.776 703.216 942.932 713.364 930.654Z" fill="url(#paint3_linear_9_5)"/>
<path d="M400 858.059C553.2 951.598 638.784 867.053 662.426 813.088C734.642 787.604 848.382 765.162 725.615 879.259C602.849 993.356 457.386 912.666 400 858.059Z" fill="url(#paint4_linear_9_5)"/>
<path d="M721.701 883.299C699.435 880.286 654.371 864.123 653.499 833.727C652.626 803.331 698.708 854.956 721.701 883.299Z" fill="#B01F02"/>
<path d="M810.726 883.756C793.802 907.48 761.279 920.224 739.694 896.605C717.878 872.732 780.422 876.689 810.726 883.756Z" fill="#951A01"/>
<path d="M920.984 801.524C925.612 830.263 882.714 890.014 850.703 888.253C818.348 886.474 894.404 817.657 920.984 801.524Z" fill="#B01F02"/>
<path fill-rule="evenodd" clip-rule="evenodd" d="M588.942 725.205C590.211 729.424 596.344 728.766 600.527 728.624C610.546 727.627 596.897 728.931 597.303 728.928L620.673 726.723L632.744 725.205C631.908 731.681 631.477 738.285 631.477 744.989C631.477 749.707 631.69 754.375 632.108 758.983C629.813 759.264 627.963 759.498 626.188 759.723C621.93 760.262 618.098 760.747 609.554 761.693C607.984 761.867 606.473 762.007 605.036 762.141C595.853 762.998 589.682 763.573 590.211 770.687C591.5 788.033 599.883 815.658 604.396 822.082C608.97 828.592 617.142 828.833 620.516 826.579L635.451 814.058L644.454 806.747C668.171 860.429 721.858 897.89 784.29 897.89C868.687 897.89 937.104 829.434 937.104 744.989C937.104 688.612 906.608 639.361 861.222 612.85C865.166 605.62 869.332 595.87 873.923 585.022C877.553 576.446 877.291 571.798 873.923 570.246C857.151 562.52 839.097 556.113 825.556 552.258C819.115 550.424 818.028 558.025 817.015 565.102L817.015 565.104C816.858 566.2 816.703 567.284 816.529 568.319L812.988 594.781C804.432 593.154 795.623 592.241 786.626 592.107C785.89 582.58 784.564 566.273 783.646 558.04C782.614 548.789 775.048 547.761 771.395 548.403C757.854 550.545 729.097 555.213 722.391 556.755C715.685 558.297 716.158 565.963 717.233 569.604L735.091 600.186C726.544 603.093 718.336 606.736 710.544 611.04C707.061 607.336 700.526 601.242 694.233 595.375C688.637 590.157 683.233 585.118 680.338 582.098C673.886 575.366 667.245 579.121 664.731 581.84C655.27 591.726 635.248 612.817 630.855 618.095C626.463 623.373 631.506 629.183 634.576 631.428L664.731 649.266C657.488 657.694 654.79 663.009 649.502 672.885C645.32 671.565 641.516 670.143 637.441 668.62C632.107 666.626 626.306 664.457 618.581 662.115C617.554 661.803 616.555 661.485 615.589 661.176C608.068 658.777 602.514 657.005 600.527 664.042C599.509 667.648 598.392 671.549 597.242 675.565C591.835 694.447 586.779 718.008 588.942 725.205ZM844.255 739.85C844.255 771.783 818.563 797.669 786.869 797.669C755.176 797.669 729.484 771.783 729.484 739.85C729.484 707.917 755.176 682.03 786.869 682.03C818.563 682.03 844.255 707.917 844.255 739.85Z" fill="url(#paint5_linear_9_5)"/>
</g>
<defs>
<filter id="filter0_f_9_5" x="0" y="0" width="1400" height="1369" filterUnits="userSpaceOnUse" color-interpolation-filters="sRGB">
<feFlood flood-opacity="0" result="BackgroundImageFix"/>
<feBlend mode="normal" in="SourceGraphic" in2="BackgroundImageFix" result="shape"/>
<feGaussianBlur stdDeviation="200" result="effect1_foregroundBlur_9_5"/>
</filter>
<linearGradient id="paint0_linear_9_5" x1="784.376" y1="407.676" x2="745.314" y2="912.11" gradientUnits="userSpaceOnUse">
<stop stop-color="#FF7452"/>
<stop offset="1" stop-color="#CE310B"/>
</linearGradient>
<linearGradient id="paint1_linear_9_5" x1="907.372" y1="393.076" x2="871.534" y2="912.709" gradientUnits="userSpaceOnUse">
<stop stop-color="#F45C37" stop-opacity="0.24"/>
<stop offset="1" stop-color="#E03209"/>
</linearGradient>
<linearGradient id="paint2_linear_9_5" x1="784.376" y1="407.676" x2="807.33" y2="948.6" gradientUnits="userSpaceOnUse">
<stop stop-color="#E62D00"/>
<stop offset="1" stop-color="#BC2C09"/>
</linearGradient>
<linearGradient id="paint3_linear_9_5" x1="784.376" y1="407.676" x2="745.314" y2="912.11" gradientUnits="userSpaceOnUse">
<stop stop-color="#E62D00"/>
<stop offset="1" stop-color="#B62806"/>
</linearGradient>
<linearGradient id="paint4_linear_9_5" x1="834.803" y1="544.294" x2="586.273" y2="933.802" gradientUnits="userSpaceOnUse">
<stop stop-color="#E62D00"/>
<stop offset="1" stop-color="#C22C07"/>
</linearGradient>
<linearGradient id="paint5_linear_9_5" x1="686.928" y1="884.399" x2="878.956" y2="674.267" gradientUnits="userSpaceOnUse">
<stop offset="0.152555" stop-color="#DE5F00"/>
<stop offset="1" stop-color="#FFA126"/>
</linearGradient>
</defs>
</svg>
