<svg width="336" height="169" viewBox="0 0 336 169" fill="none" xmlns="http://www.w3.org/2000/svg">
<path d="M19.6937 96.4406L18.7082 98.1809L18.7161 98.1854L18.7242 98.1899L19.6937 96.4406ZM7.64636 84.6671L5.91503 85.6683L5.92219 85.6807L5.92953 85.693L7.64636 84.6671ZM7.64636 50.6243L5.92408 49.6076L5.92033 49.614L7.64636 50.6243ZM52.915 38.8509L51.9365 40.5952L51.9455 40.6002L52.915 38.8509ZM64.871 50.6243L63.1397 51.6256L63.145 51.6347L64.871 50.6243ZM64.871 84.6671L66.5971 85.6775L66.6023 85.6683L64.871 84.6671ZM52.915 96.4406L53.8845 98.1899L53.8925 98.1854L53.9005 98.1809L52.915 96.4406ZM47.0739 79.5561L45.5858 78.2199L45.5781 78.2283L45.5706 78.2369L47.0739 79.5561ZM47.0739 55.5528L45.5706 56.872L45.5849 56.8883L45.5996 56.9042L47.0739 55.5528ZM25.4435 55.5528L26.9332 56.8873L26.94 56.8797L26.9468 56.872L25.4435 55.5528ZM25.4435 79.6474L23.9402 80.9666L23.947 80.9742L23.9538 80.9819L25.4435 79.6474ZM36.3043 98.6389C30.6046 98.6389 25.4036 97.3185 20.6632 94.6913L18.7242 98.1899C24.084 101.16 29.9567 102.639 36.3043 102.639V98.6389ZM20.6792 94.7002C15.9311 92.0115 12.1671 88.3334 9.36319 83.6412L5.92953 85.693C9.08842 90.9793 13.356 95.1502 18.7082 98.1809L20.6792 94.7002ZM9.37769 83.6658C6.6479 78.9456 5.26553 73.6071 5.26553 67.6001H1.26553C1.26553 74.2488 2.80372 80.2883 5.91503 85.6683L9.37769 83.6658ZM5.26553 67.6001C5.26553 61.5928 6.64794 56.289 9.37239 51.6347L5.92033 49.614C2.80367 54.9383 1.26553 60.9517 1.26553 67.6001H5.26553ZM9.36863 51.6411C12.1718 46.8928 15.9298 43.2234 20.6632 40.6002L18.7242 37.1015C13.3572 40.076 9.08368 44.2556 5.9241 49.6076L9.36863 51.6411ZM20.6632 40.6002C25.4036 37.973 30.6046 36.6526 36.3043 36.6526V32.6526C29.9567 32.6526 24.084 34.131 18.7242 37.1015L20.6632 40.6002ZM36.3043 36.6526C42.0687 36.6526 47.2651 37.9746 51.9365 40.5951L53.8935 37.1066C48.5863 34.1293 42.709 32.6526 36.3043 32.6526V36.6526ZM51.9455 40.6002C56.6751 43.2214 60.3986 46.8858 63.1397 51.6256L66.6023 49.6231C63.5023 44.2626 59.2551 40.078 53.8845 37.1015L51.9455 40.6002ZM63.145 51.6347C65.8694 56.289 67.2518 61.5928 67.2518 67.6001H71.2518C71.2518 60.9517 69.7137 54.9383 66.597 49.614L63.145 51.6347ZM67.2518 67.6001C67.2518 73.6071 65.8695 78.9456 63.1397 83.6658L66.6023 85.6683C69.7137 80.2883 71.2518 74.2488 71.2518 67.6001H67.2518ZM63.145 83.6567C60.4033 88.3404 56.674 92.0136 51.9295 94.7002L53.9005 98.1809C59.2562 95.1481 63.4976 90.9723 66.597 85.6774L63.145 83.6567ZM51.9455 94.6913C47.2051 97.3185 42.004 98.6389 36.3043 98.6389V102.639C42.6519 102.639 48.5246 101.16 53.8845 98.1899L51.9455 94.6913ZM36.3043 86.0282C41.3475 86.0282 45.522 84.3567 48.5771 80.8753L45.5706 78.2369C43.393 80.7184 40.3879 82.0282 36.3043 82.0282V86.0282ZM48.562 80.8924C51.6441 77.46 53.0896 72.9568 53.0896 67.6001H49.0896C49.0896 72.2219 47.858 75.6894 45.5858 78.2199L48.562 80.8924ZM53.0896 67.6001C53.0896 62.1384 51.6526 57.588 48.5482 54.2013L45.5996 56.9042C47.8495 59.3587 49.0896 62.8398 49.0896 67.6001H53.0896ZM48.5771 54.2336C45.522 50.7522 41.3475 49.0807 36.3043 49.0807V53.0807C40.3879 53.0807 43.393 54.3905 45.5706 56.872L48.5771 54.2336ZM36.3043 49.0807C31.2097 49.0807 27.0007 50.7462 23.9402 54.2336L26.9468 56.872C29.119 54.3966 32.1505 53.0807 36.3043 53.0807V49.0807ZM23.9538 54.2183C20.9193 57.6056 19.519 62.1497 19.519 67.6001H23.519C23.519 62.8285 24.735 59.3411 26.9332 56.8873L23.9538 54.2183ZM19.519 67.6001C19.519 72.9991 20.9239 77.5293 23.9402 80.9666L26.9468 78.3282C24.7305 75.8027 23.519 72.3013 23.519 67.6001H19.519ZM23.9538 80.9819C27.0182 84.4026 31.2232 86.0282 36.3043 86.0282V82.0282C32.137 82.0282 29.1015 80.7333 26.9332 78.3129L23.9538 80.9819ZM104.4 35.6565H106.4V33.6565H104.4V35.6565ZM106.773 81.0164L105.24 82.3016L105.252 82.3159L105.265 82.3299L106.773 81.0164ZM121.558 81.0164L120.053 79.6994L120.05 79.7028L121.558 81.0164ZM124.114 35.6565V33.6565H122.114V35.6565H124.114ZM142.002 35.6565H144.002V33.6565H142.002V35.6565ZM138.26 88.1352L139.973 89.168L139.979 89.1569L138.26 88.1352ZM128.038 97.5358L128.912 99.3348L128.922 99.3297L128.038 97.5358ZM99.7451 97.5358L98.8191 99.3085L98.8348 99.3167L98.8507 99.3246L99.7451 97.5358ZM90.0708 88.1352L88.3249 89.1109L88.3303 89.1206L88.3359 89.1303L90.0708 88.1352ZM86.6026 35.6565V33.6565H84.6026V35.6565H86.6026ZM102.4 35.6565V72.9849H106.4V35.6565H102.4ZM102.4 72.9849C102.4 76.7333 103.253 79.9326 105.24 82.3016L108.305 79.7312C107.128 78.3278 106.4 76.1727 106.4 72.9849H102.4ZM105.265 82.3299C107.398 84.7791 110.494 85.8457 114.165 85.8457V81.8457C111.265 81.8457 109.433 81.0261 108.281 79.7028L105.265 82.3299ZM114.165 85.8457C117.837 85.8457 120.933 84.7791 123.066 82.3299L120.05 79.7028C118.897 81.0261 117.065 81.8457 114.165 81.8457V85.8457ZM123.063 82.3334C125.176 79.9192 126.114 76.7204 126.114 72.9849H122.114C122.114 76.064 121.348 78.2195 120.053 79.6994L123.063 82.3334ZM126.114 72.9849V35.6565H122.114V72.9849H126.114ZM124.114 37.6565H142.002V33.6565H124.114V37.6565ZM140.002 35.6565V72.9849H144.002V35.6565H140.002ZM140.002 72.9849C140.002 78.6023 138.817 83.2831 136.541 87.1136L139.979 89.1569C142.693 84.5907 144.002 79.1713 144.002 72.9849H140.002ZM136.547 87.1025C134.25 90.9133 131.129 93.7821 127.154 95.7419L128.922 99.3297C133.587 97.0303 137.281 93.6321 139.973 89.1679L136.547 87.1025ZM127.164 95.7368C123.205 97.6598 118.762 98.6389 113.8 98.6389V102.639C119.303 102.639 124.353 101.549 128.912 99.3348L127.164 95.7368ZM113.8 98.6389C108.837 98.6389 104.465 97.6595 100.64 95.7469L98.8507 99.3246C103.3 101.549 108.298 102.639 113.8 102.639V98.6389ZM100.671 95.7631C96.9458 93.817 93.9962 90.9595 91.8057 87.1402L88.3359 89.1303C90.8913 93.5859 94.3912 96.9954 98.8191 99.3085L100.671 95.7631ZM91.8167 87.1596C89.7089 83.3878 88.6026 78.6928 88.6026 72.9849H84.6026C84.6026 79.2026 85.8085 84.6078 88.3249 89.1109L91.8167 87.1596ZM88.6026 72.9849V35.6565H84.6026V72.9849H88.6026ZM86.6026 37.6565H104.4V33.6565H86.6026V37.6565ZM194.016 100L192.256 100.948L192.822 102H194.016V100ZM181.239 76.2705L183 75.3223L182.434 74.2705H181.239V76.2705ZM179.322 76.2705V74.2705H177.322V76.2705H179.322ZM179.322 100V102H181.322V100H179.322ZM161.434 100H159.434V102H161.434V100ZM161.434 35.6565V33.6565H159.434V35.6565H161.434ZM202.778 38.3945L201.872 40.1773L201.884 40.1834L201.896 40.1894L202.778 38.3945ZM210.901 45.7872L209.169 46.7866L209.173 46.7939L209.177 46.8012L210.901 45.7872ZM209.988 67.8739L208.371 66.6975L208.367 66.7029L209.988 67.8739ZM199.493 74.9015L198.913 72.9872L196.498 73.7181L197.761 75.9025L199.493 74.9015ZM214.004 100V102H217.471L215.735 98.9989L214.004 100ZM179.322 64.0407H177.322V66.0407H179.322V64.0407ZM193.651 62.3066L192.274 60.8566L192.274 60.8566L193.651 62.3066ZM193.56 52.4497L192.146 53.8639L192.181 53.8992L192.218 53.9328L193.56 52.4497ZM179.322 50.6243V48.6243H177.322V50.6243H179.322ZM195.777 99.0518L183 75.3223L179.478 77.2187L192.256 100.948L195.777 99.0518ZM181.239 74.2705H179.322V78.2705H181.239V74.2705ZM177.322 76.2705V100H181.322V76.2705H177.322ZM179.322 98H161.434V102H179.322V98ZM163.434 100V35.6565H159.434V100H163.434ZM161.434 37.6565H189.636V33.6565H161.434V37.6565ZM189.636 37.6565C194.579 37.6565 198.631 38.5295 201.872 40.1773L203.685 36.6117C199.746 34.6089 195.036 33.6565 189.636 33.6565V37.6565ZM201.896 40.1894C205.165 41.7963 207.56 43.9989 209.169 46.7866L212.633 44.7877C210.591 41.2476 207.571 38.5217 203.66 36.5996L201.896 40.1894ZM209.177 46.8012C210.807 49.572 211.639 52.7153 211.639 56.2829H215.639C215.639 52.0624 214.646 48.2085 212.625 44.7731L209.177 46.8012ZM211.639 56.2829C211.639 60.2674 210.541 63.7136 208.371 66.6975L211.606 69.0502C214.303 65.3412 215.639 61.0601 215.639 56.2829H211.639ZM208.367 66.7029C206.297 69.5688 203.201 71.6895 198.913 72.9872L200.072 76.8157C205.032 75.3145 208.934 72.7502 211.61 69.0449L208.367 66.7029ZM197.761 75.9025L212.273 101.001L215.735 98.9989L201.224 73.9004L197.761 75.9025ZM214.004 98H194.016V102H214.004V98ZM179.322 66.0407H188.175V62.0407H179.322V66.0407ZM188.175 66.0407C190.893 66.0407 193.302 65.3971 195.029 63.7566L192.274 60.8566C191.567 61.5281 190.326 62.0407 188.175 62.0407V66.0407ZM195.029 63.7566C196.755 62.1171 197.477 59.85 197.477 57.2869H193.477C193.477 59.1045 192.982 60.184 192.274 60.8566L195.029 63.7566ZM197.477 57.2869C197.477 54.7763 196.682 52.5773 194.902 50.9666L192.218 53.9328C192.994 54.6341 193.477 55.66 193.477 57.2869H197.477ZM194.974 51.0355C193.259 49.3198 190.874 48.6243 188.175 48.6243V52.6243C190.223 52.6243 191.428 53.1457 192.146 53.8639L194.974 51.0355ZM188.175 48.6243H179.322V52.6243H188.175V48.6243ZM177.322 50.6243V64.0407H181.322V50.6243H177.322Z" fill="#E63706"/>
<path d="M99.6744 67.3901V81.6278H82.5162V131.734H64.6277V81.6278H47.652V67.3901H99.6744ZM133.764 81.7191V92.2149H154.299V105.814H133.764V117.405H157.037V131.734H115.876V67.3901H157.037V81.7191H133.764ZM216.165 121.238H193.348L189.88 131.734H171.079L194.535 67.3901H215.161L238.526 131.734H219.633L216.165 121.238ZM211.693 107.548L204.757 86.7388L197.912 107.548H211.693ZM329.052 67.3901V131.734H311.164V96.2306L299.025 131.734H284.057L271.828 95.9568V131.734H253.939V67.3901H275.569L291.724 109.191L307.513 67.3901H329.052Z" fill="white"/>
</svg>
