<svg width="803" height="236" viewBox="0 0 803 236" fill="none" xmlns="http://www.w3.org/2000/svg">
<path d="M231.73 98.8126L233.672 99.2893L234.28 96.8126H231.73V98.8126ZM210.335 186V188H211.903L212.277 186.477L210.335 186ZM180.53 186L178.579 186.438L178.93 188H180.53V186ZM168.534 132.575L170.486 132.136L166.585 132.128L168.534 132.575ZM156.291 186V188H157.885L158.241 186.447L156.291 186ZM126.487 186L124.543 186.471L124.914 188H126.487V186ZM105.339 98.8126V96.8126H102.796L103.395 99.2841L105.339 98.8126ZM131.557 98.8126L133.529 98.4772L133.246 96.8126H131.557V98.8126ZM141.698 158.422L139.726 158.757L143.647 158.87L141.698 158.422ZM155.425 98.8126V96.8126H153.834L153.476 98.3638L155.425 98.8126ZM182.014 98.8126L183.965 98.3719L183.613 96.8126H182.014V98.8126ZM195.371 157.927L193.42 158.368L197.342 158.265L195.371 157.927ZM205.512 98.8126V96.8126H203.826L203.541 98.4745L205.512 98.8126ZM229.787 98.336L208.393 185.523L212.277 186.477L233.672 99.2893L229.787 98.336ZM210.335 184H180.53V188H210.335V184ZM182.482 185.562L170.486 132.136L166.583 133.013L178.579 186.438L182.482 185.562ZM166.585 132.128L154.342 185.553L158.241 186.447L170.484 133.021L166.585 132.128ZM156.291 184H126.487V188H156.291V184ZM128.43 185.529L107.283 98.3412L103.395 99.2841L124.543 186.471L128.43 185.529ZM105.339 100.813H131.557V96.8126H105.339V100.813ZM129.585 99.1481L139.726 158.757L143.67 158.086L133.529 98.4772L129.585 99.1481ZM143.647 158.87L157.374 99.2615L153.476 98.3638L139.749 157.973L143.647 158.87ZM155.425 100.813H182.014V96.8126H155.425V100.813ZM180.064 99.2534L193.42 158.368L197.322 157.486L183.965 98.3719L180.064 99.2534ZM197.342 158.265L207.483 99.1508L203.541 98.4745L193.4 157.589L197.342 158.265ZM205.512 100.813H231.73V96.8126H205.512V100.813ZM279.24 118.229V116.229H277.24V118.229H279.24ZM279.24 132.451H277.24V134.451H279.24V132.451ZM307.066 132.451H309.066V130.451H307.066V132.451ZM307.066 150.878V152.878H309.066V150.878H307.066ZM279.24 150.878V148.878H277.24V150.878H279.24ZM279.24 166.584H277.24V168.584H279.24V166.584ZM310.776 166.584H312.776V164.584H310.776V166.584ZM310.776 186V188H312.776V186H310.776ZM255.001 186H253.001V188H255.001V186ZM255.001 98.8126V96.8126H253.001V98.8126H255.001ZM310.776 98.8126H312.776V96.8126H310.776V98.8126ZM310.776 118.229V120.229H312.776V118.229H310.776ZM277.24 118.229V132.451H281.24V118.229H277.24ZM279.24 134.451H307.066V130.451H279.24V134.451ZM305.066 132.451V150.878H309.066V132.451H305.066ZM307.066 148.878H279.24V152.878H307.066V148.878ZM277.24 150.878V166.584H281.24V150.878H277.24ZM279.24 168.584H310.776V164.584H279.24V168.584ZM308.776 166.584V186H312.776V166.584H308.776ZM310.776 184H255.001V188H310.776V184ZM257.001 186V98.8126H253.001V186H257.001ZM255.001 100.813H310.776V96.8126H255.001V100.813ZM308.776 98.8126V118.229H312.776V98.8126H308.776ZM310.776 116.229H279.24V120.229H310.776V116.229ZM391.688 181.177L390.703 182.917L390.711 182.922L390.719 182.926L391.688 181.177ZM375.364 165.223L373.633 166.225L373.64 166.237L373.647 166.249L375.364 165.223ZM375.364 119.095L373.642 118.078L373.638 118.084L375.364 119.095ZM436.704 103.141L435.726 104.885L435.735 104.89L436.704 103.141ZM452.905 119.095L451.174 120.096L451.179 120.105L452.905 119.095ZM452.905 165.223L454.631 166.234L454.636 166.225L452.905 165.223ZM436.704 181.177L437.674 182.926L437.682 182.922L437.69 182.917L436.704 181.177ZM428.789 158.298L427.301 156.962L427.294 156.97L427.286 156.979L428.789 158.298ZM428.789 125.773L427.286 127.092L427.3 127.108L427.315 127.124L428.789 125.773ZM399.479 125.773L400.969 127.107L400.976 127.1L400.983 127.092L399.479 125.773ZM399.479 158.422L397.976 159.741L397.983 159.748L397.99 159.756L399.479 158.422ZM414.196 184.866C406.358 184.866 399.191 183.048 392.658 179.428L390.719 182.926C397.872 186.89 405.71 188.866 414.196 188.866V184.866ZM392.674 179.437C386.133 175.733 380.943 170.661 377.081 164.198L373.647 166.249C377.864 173.307 383.558 178.871 390.703 182.917L392.674 179.437ZM377.095 164.222C373.328 157.709 371.428 150.351 371.428 142.097H367.428C367.428 150.992 369.484 159.052 373.633 166.225L377.095 164.222ZM371.428 142.097C371.428 133.843 373.329 126.53 377.09 120.105L373.638 118.084C369.484 125.18 367.428 133.202 367.428 142.097H371.428ZM377.086 120.111C380.948 113.57 386.132 108.507 392.658 104.89L390.719 101.392C383.559 105.36 377.86 110.933 373.642 118.078L377.086 120.111ZM392.658 104.89C399.191 101.27 406.358 99.4523 414.196 99.4523V95.4523C405.71 95.4523 397.872 97.4276 390.719 101.392L392.658 104.89ZM414.196 99.4523C422.121 99.4523 429.283 101.271 435.726 104.885L437.683 101.397C430.604 97.4259 422.761 95.4523 414.196 95.4523V99.4523ZM435.735 104.89C442.257 108.505 447.396 113.563 451.174 120.096L454.636 118.093C450.499 110.94 444.837 105.362 437.674 101.392L435.735 104.89ZM451.179 120.105C454.94 126.53 456.841 133.843 456.841 142.097H460.841C460.841 133.202 458.785 125.18 454.631 118.084L451.179 120.105ZM456.841 142.097C456.841 150.351 454.94 157.709 451.174 164.222L454.636 166.225C458.784 159.052 460.841 150.992 460.841 142.097H456.841ZM451.179 164.213C447.4 170.668 442.256 175.735 435.719 179.437L437.69 182.917C444.838 178.869 450.495 173.3 454.631 166.234L451.179 164.213ZM435.735 179.428C429.201 183.048 422.034 184.866 414.196 184.866V188.866C422.682 188.866 430.521 186.89 437.674 182.926L435.735 179.428ZM414.196 166.358C420.859 166.358 426.309 164.157 430.293 159.617L427.286 156.979C424.18 160.519 419.9 162.358 414.196 162.358V166.358ZM430.277 159.634C434.31 155.143 436.231 149.225 436.231 142.097H432.231C432.231 148.49 430.524 153.373 427.301 156.962L430.277 159.634ZM436.231 142.097C436.231 134.821 434.318 128.845 430.264 124.421L427.315 127.124C430.515 130.616 432.231 135.522 432.231 142.097H436.231ZM430.293 124.454C426.309 119.914 420.859 117.713 414.196 117.713V121.713C419.9 121.713 424.18 123.552 427.286 127.092L430.293 124.454ZM414.196 117.713C407.46 117.713 401.966 119.908 397.976 124.454L400.983 127.092C404.084 123.558 408.401 121.713 414.196 121.713V117.713ZM397.99 124.438C394.026 128.862 392.162 134.832 392.162 142.097H396.162C396.162 135.511 397.842 130.598 400.969 127.107L397.99 124.438ZM392.162 142.097C392.162 149.289 394.031 155.245 397.976 159.741L400.983 157.102C397.838 153.518 396.162 148.591 396.162 142.097H392.162ZM397.99 159.756C401.983 164.214 407.473 166.358 414.196 166.358V162.358C408.387 162.358 404.066 160.544 400.969 157.087L397.99 159.756ZM541.837 98.8126H543.837V96.8126H541.837V98.8126ZM541.837 118.105V120.105H543.837V118.105H541.837ZM506.962 118.105V116.105H504.962V118.105H506.962ZM506.962 133.44H504.962V135.44H506.962V133.44ZM532.686 133.44H534.686V131.44H532.686V133.44ZM532.686 151.867V153.867H534.686V151.867H532.686ZM506.962 151.867V149.867H504.962V151.867H506.962ZM506.962 186V188H508.962V186H506.962ZM482.723 186H480.723V188H482.723V186ZM482.723 98.8126V96.8126H480.723V98.8126H482.723ZM539.837 98.8126V118.105H543.837V98.8126H539.837ZM541.837 116.105H506.962V120.105H541.837V116.105ZM504.962 118.105V133.44H508.962V118.105H504.962ZM506.962 135.44H532.686V131.44H506.962V135.44ZM530.686 133.44V151.867H534.686V133.44H530.686ZM532.686 149.867H506.962V153.867H532.686V149.867ZM504.962 151.867V186H508.962V151.867H504.962ZM506.962 184H482.723V188H506.962V184ZM484.723 186V98.8126H480.723V186H484.723ZM482.723 100.813H541.837V96.8126H482.723V100.813ZM624.145 98.8126H626.145V96.8126H624.145V98.8126ZM624.145 118.105V120.105H626.145V118.105H624.145ZM589.27 118.105V116.105H587.27V118.105H589.27ZM589.27 133.44H587.27V135.44H589.27V133.44ZM614.994 133.44H616.994V131.44H614.994V133.44ZM614.994 151.867V153.867H616.994V151.867H614.994ZM589.27 151.867V149.867H587.27V151.867H589.27ZM589.27 186V188H591.27V186H589.27ZM565.031 186H563.031V188H565.031V186ZM565.031 98.8126V96.8126H563.031V98.8126H565.031ZM622.145 98.8126V118.105H626.145V98.8126H622.145ZM624.145 116.105H589.27V120.105H624.145V116.105ZM587.27 118.105V133.44H591.27V118.105H587.27ZM589.27 135.44H614.994V131.44H589.27V135.44ZM612.994 133.44V151.867H616.994V133.44H612.994ZM614.994 149.867H589.27V153.867H614.994V149.867ZM587.27 151.867V186H591.27V151.867H587.27ZM589.27 184H565.031V188H589.27V184ZM567.031 186V98.8126H563.031V186H567.031ZM565.031 100.813H624.145V96.8126H565.031V100.813ZM671.579 118.229V116.229H669.579V118.229H671.579ZM671.579 132.451H669.579V134.451H671.579V132.451ZM699.404 132.451H701.404V130.451H699.404V132.451ZM699.404 150.878V152.878H701.404V150.878H699.404ZM671.579 150.878V148.878H669.579V150.878H671.579ZM671.579 166.584H669.579V168.584H671.579V166.584ZM703.114 166.584H705.114V164.584H703.114V166.584ZM703.114 186V188H705.114V186H703.114ZM647.339 186H645.339V188H647.339V186ZM647.339 98.8126V96.8126H645.339V98.8126H647.339ZM703.114 98.8126H705.114V96.8126H703.114V98.8126ZM703.114 118.229V120.229H705.114V118.229H703.114ZM669.579 118.229V132.451H673.579V118.229H669.579ZM671.579 134.451H699.404V130.451H671.579V134.451ZM697.404 132.451V150.878H701.404V132.451H697.404ZM699.404 148.878H671.579V152.878H699.404V148.878ZM669.579 150.878V166.584H673.579V150.878H669.579ZM671.579 168.584H703.114V164.584H671.579V168.584ZM701.114 166.584V186H705.114V166.584H701.114ZM703.114 184H647.339V188H703.114V184ZM649.339 186V98.8126H645.339V186H649.339ZM647.339 100.813H703.114V96.8126H647.339V100.813ZM701.114 98.8126V118.229H705.114V98.8126H701.114ZM703.114 116.229H671.579V120.229H703.114V116.229ZM772.228 186L770.467 186.948L771.033 188H772.228V186ZM754.914 153.846L756.675 152.898L756.108 151.846H754.914V153.846ZM752.317 153.846V151.846H750.317V153.846H752.317ZM752.317 186V188H754.317V186H752.317ZM728.077 186H726.077V188H728.077V186ZM728.077 98.8126V96.8126H726.077V98.8126H728.077ZM784.1 102.523L783.193 104.306L783.206 104.312L783.218 104.318L784.1 102.523ZM795.107 112.54L793.374 113.539L793.378 113.547L793.383 113.554L795.107 112.54ZM793.87 142.468L792.252 141.292L792.249 141.297L793.87 142.468ZM779.648 151.991L779.069 150.076L776.653 150.807L777.916 152.992L779.648 151.991ZM799.311 186V188H802.778L801.043 184.999L799.311 186ZM752.317 137.274H750.317V139.274H752.317V137.274ZM771.733 134.924L770.355 133.474L771.733 134.924ZM771.609 121.568L770.195 122.982L770.23 123.017L770.267 123.051L771.609 121.568ZM752.317 119.095V117.095H750.317V119.095H752.317ZM773.989 185.052L756.675 152.898L753.153 154.794L770.467 186.948L773.989 185.052ZM754.914 151.846H752.317V155.846H754.914V151.846ZM750.317 153.846V186H754.317V153.846H750.317ZM752.317 184H728.077V188H752.317V184ZM730.077 186V98.8126H726.077V186H730.077ZM728.077 100.813H766.291V96.8126H728.077V100.813ZM766.291 100.813C773.071 100.813 778.678 102.01 783.193 104.306L785.006 100.74C779.793 98.089 773.528 96.8126 766.291 96.8126V100.813ZM783.218 104.318C787.761 106.551 791.118 109.628 793.374 113.539L796.839 111.541C794.149 106.877 790.167 103.276 784.982 100.728L783.218 104.318ZM793.383 113.554C795.661 117.427 796.817 121.812 796.817 126.762H800.817C800.817 121.159 799.499 116.063 796.83 111.526L793.383 113.554ZM796.817 126.762C796.817 132.302 795.287 137.12 792.252 141.292L795.487 143.645C799.049 138.747 800.817 133.095 800.817 126.762H796.817ZM792.249 141.297C789.336 145.33 784.998 148.282 779.069 150.076L780.227 153.905C786.829 151.907 791.973 148.511 795.491 143.639L792.249 141.297ZM777.916 152.992L797.58 187.001L801.043 184.999L781.379 150.99L777.916 152.992ZM799.311 184H772.228V188H799.311V184ZM752.317 139.274H764.313V135.274H752.317V139.274ZM764.313 139.274C767.894 139.274 770.952 138.425 773.11 136.374L770.355 133.474C769.216 134.556 767.327 135.274 764.313 135.274V139.274ZM773.11 136.374C775.268 134.324 776.206 131.463 776.206 128.122H772.206C772.206 130.718 771.495 132.391 770.355 133.474L773.11 136.374ZM776.206 128.122C776.206 124.877 775.185 122.106 772.951 120.085L770.267 123.051C771.496 124.163 772.206 125.761 772.206 128.122H776.206ZM773.023 120.154C770.876 118.006 767.854 117.095 764.313 117.095V121.095C767.203 121.095 769.045 121.832 770.195 122.982L773.023 120.154ZM764.313 117.095H752.317V121.095H764.313V117.095ZM750.317 119.095V137.274H754.317V119.095H750.317Z" fill="#E63606"/>
<path d="M39.8217 136.866C29.6808 136.866 21.3537 134.475 14.8404 129.693C8.32711 124.828 4.82313 117.903 4.32845 108.916H30.1755C30.4228 111.967 31.3297 114.193 32.8962 115.594C34.4627 116.996 36.4827 117.697 38.9561 117.697C41.1821 117.697 42.9959 117.161 44.3975 116.089C45.8816 114.935 46.6236 113.368 46.6236 111.39C46.6236 108.834 45.4281 106.855 43.0372 105.454C40.6462 104.052 36.7712 102.485 31.4122 100.754C25.7234 98.8578 21.1063 97.0439 17.5611 95.3126C14.0984 93.4987 11.0479 90.9017 8.40956 87.5214C5.85371 84.0586 4.57579 79.5653 4.57579 74.0413C4.57579 68.435 5.97738 63.653 8.78057 59.6956C11.5838 55.6557 15.4588 52.6052 20.4056 50.544C25.3524 48.4829 30.9587 47.4523 37.2247 47.4523C47.3656 47.4523 55.4454 49.8432 61.464 54.6251C67.565 59.3246 70.8217 65.9616 71.2339 74.536H44.8922C44.8098 71.8977 43.9853 69.919 42.4188 68.5998C40.9348 67.2807 38.9973 66.6211 36.6063 66.6211C34.7925 66.6211 33.3085 67.157 32.1542 68.2288C30.9999 69.3006 30.4228 70.8259 30.4228 72.8046C30.4228 74.4536 31.0412 75.8964 32.2779 77.1331C33.597 78.2873 35.2047 79.3179 37.101 80.2248C38.9973 81.0493 41.8005 82.1211 45.5106 83.4402C51.0345 85.3365 55.5691 87.2328 59.1143 89.1291C62.7419 90.9429 65.8337 93.54 68.3895 96.9203C71.0278 100.218 72.347 104.423 72.347 109.535C72.347 114.729 71.0278 119.387 68.3895 123.509C65.8337 127.632 62.0823 130.888 57.1355 133.279C52.2712 135.67 46.4999 136.866 39.8217 136.866ZM120.84 68.2288V82.4509H148.666V100.878H120.84V116.584H152.376V136H96.6008V48.8126H152.376V68.2288H120.84ZM221.489 136L204.175 103.846H201.578V136H177.339V48.8126H215.553C222.561 48.8126 228.497 50.0493 233.361 52.5227C238.226 54.9137 241.895 58.2528 244.368 62.54C246.841 66.7448 248.078 71.4855 248.078 76.7621C248.078 82.6982 246.429 87.9336 243.131 92.4682C239.916 96.9203 235.175 100.094 228.909 101.991L248.573 136H221.489ZM201.578 87.274H213.574C216.872 87.274 219.345 86.4908 220.994 84.9243C222.643 83.3578 223.468 81.0905 223.468 78.1224C223.468 75.3193 222.602 73.1344 220.871 71.5679C219.222 69.919 216.79 69.0945 213.574 69.0945H201.578V87.274ZM356.924 48.8126L326.872 136H295.831L265.656 48.8126H291.626L311.414 111.761L331.077 48.8126H356.924ZM401.701 48.8126V136H377.462V48.8126H401.701ZM425.522 92.2208C425.522 83.6464 427.295 76.02 430.84 69.3419C434.468 62.5812 439.58 57.3459 446.175 53.6358C452.771 49.8432 460.356 47.947 468.931 47.947C479.814 47.947 488.965 50.8738 496.385 56.7275C503.805 62.4988 508.587 70.3725 510.731 80.3485H484.637C483.07 77.0506 480.885 74.536 478.082 72.8046C475.361 71.0732 472.187 70.2076 468.56 70.2076C462.953 70.2076 458.46 72.2275 455.08 76.2674C451.782 80.2248 450.133 85.5426 450.133 92.2208C450.133 98.9814 451.782 104.382 455.08 108.422C458.46 112.379 462.953 114.358 468.56 114.358C472.187 114.358 475.361 113.492 478.082 111.761C480.885 110.029 483.07 107.515 484.637 104.217H510.731C508.587 114.193 503.805 122.108 496.385 127.961C488.965 133.733 479.814 136.618 468.931 136.618C460.356 136.618 452.771 134.763 446.175 131.053C439.58 127.261 434.468 122.025 430.84 115.347C427.295 108.586 425.522 100.878 425.522 92.2208ZM559.434 68.2288V82.4509H587.26V100.878H559.434V116.584H590.97V136H535.194V48.8126H590.97V68.2288H559.434ZM648.829 136.866C638.688 136.866 630.361 134.475 623.847 129.693C617.334 124.828 613.83 117.903 613.336 108.916H639.183C639.43 111.967 640.337 114.193 641.903 115.594C643.47 116.996 645.49 117.697 647.963 117.697C650.189 117.697 652.003 117.161 653.405 116.089C654.889 114.935 655.631 113.368 655.631 111.39C655.631 108.834 654.435 106.855 652.044 105.454C649.653 104.052 645.778 102.485 640.419 100.754C634.73 98.8578 630.113 97.0439 626.568 95.3126C623.105 93.4987 620.055 90.9017 617.417 87.5214C614.861 84.0586 613.583 79.5653 613.583 74.0413C613.583 68.435 614.984 63.653 617.788 59.6956C620.591 55.6557 624.466 52.6052 629.413 50.544C634.359 48.4829 639.966 47.4523 646.232 47.4523C656.373 47.4523 664.452 49.8432 670.471 54.6251C676.572 59.3246 679.829 65.9616 680.241 74.536H653.899C653.817 71.8977 652.992 69.919 651.426 68.5998C649.942 67.2807 648.004 66.6211 645.613 66.6211C643.8 66.6211 642.316 67.157 641.161 68.2288C640.007 69.3006 639.43 70.8259 639.43 72.8046C639.43 74.4536 640.048 75.8964 641.285 77.1331C642.604 78.2873 644.212 79.3179 646.108 80.2248C648.004 81.0493 650.808 82.1211 654.518 83.4402C660.042 85.3365 664.576 87.2328 668.121 89.1291C671.749 90.9429 674.841 93.54 677.397 96.9203C680.035 100.218 681.354 104.423 681.354 109.535C681.354 114.729 680.035 119.387 677.397 123.509C674.841 127.632 671.089 130.888 666.143 133.279C661.278 135.67 655.507 136.866 648.829 136.866Z" fill="white"/>
</svg>
