<svg width="297" height="779" viewBox="0 0 297 779" fill="none" xmlns="http://www.w3.org/2000/svg">
<path d="M405.29 62C307.29 62.6667 93.6896 88.8 23.2896 188C-64.7104 312 130.29 413 218.79 503.5C307.29 594 354.79 677 350.79 778.5" stroke="#F46522" stroke-opacity="0.6" stroke-width="2"/>
<path d="M406.29 30C308.29 30.6667 94.6896 56.8 24.2896 156C-63.7104 280 131.29 381 219.79 471.5C308.29 562 355.79 645 351.79 746.5" stroke="#F46522" stroke-opacity="0.6" stroke-width="2"/>
<path d="M405.29 1C307.29 1.66667 93.6896 27.8 23.2896 127C-64.7104 251 130.29 352 218.79 442.5C307.29 533 354.79 616 350.79 717.5" stroke="#F46522" stroke-opacity="0.6" stroke-width="2"/>
</svg>
