<svg width="319" height="779" viewBox="0 0 319 779" fill="none" xmlns="http://www.w3.org/2000/svg">
<path d="M-87 62C11 62.6667 224.6 88.8 295 188C383 312 188 413 99.5 503.5C11 594 -36.5 677 -32.5 778.5" stroke="#F46522" stroke-opacity="0.6" stroke-width="2"/>
<path d="M-88 30C10 30.6667 223.6 56.8 294 156C382 280 187 381 98.5 471.5C10 562 -37.5 645 -33.5 746.5" stroke="#F46522" stroke-opacity="0.6" stroke-width="2"/>
<path d="M-87 1C11 1.66667 224.6 27.8 295 127C383 251 188 352 99.5 442.5C11 533 -36.5 616 -32.5 717.5" stroke="#F46522" stroke-opacity="0.6" stroke-width="2"/>
</svg>
