<svg width="44" height="48" viewBox="0 0 44 48" fill="none" xmlns="http://www.w3.org/2000/svg">
<path d="M42.724 10.6401C41.906 7.72206 40.288 5.41207 37.914 3.77807C34.918 1.71407 31.472 0.982065 28.496 0.538065C24.378 -0.0759346 20.648 -0.161935 17.096 0.272065C13.764 0.680065 11.256 1.33207 8.966 2.38407C4.48 4.44407 1.788 7.78007 0.966002 12.2961C0.566002 14.4881 0.298003 16.4701 0.142003 18.3601C-0.217997 22.7301 0.108003 26.5981 1.14 30.1821C2.144 33.6761 3.9 36.1741 6.508 37.8141C7.174 38.2321 8.022 38.5341 8.846 38.8261C9.258 38.9721 9.654 39.1161 10 39.2681V46.3281C10 47.2521 10.748 48.0001 11.672 48.0001C12.108 48.0001 12.526 47.8301 12.838 47.5261L19.352 41.1901C19.636 40.8661 19.636 40.8661 19.928 40.8601C22.154 40.8161 24.428 40.7301 26.688 40.6081C29.426 40.4581 32.598 40.1941 35.586 38.9481C38.32 37.8061 40.316 35.9941 41.514 33.5641C42.764 31.0281 43.508 28.2801 43.786 25.1661C44.274 19.6901 43.926 14.9381 42.724 10.6401ZM31.382 31.4801C30.728 32.5501 29.748 33.2901 28.596 33.7701C27.754 34.1221 26.894 34.0481 26.064 33.6961C19.096 30.7481 13.634 26.1001 10.022 19.4221C9.278 18.0461 8.76 16.5481 8.166 15.0941C8.044 14.7941 8.054 14.4441 8 14.1181C8.052 11.7681 9.854 10.4461 11.674 10.0461C12.37 9.89207 12.986 10.1381 13.502 10.6321C14.93 11.9961 16.06 13.5761 16.91 15.3481C17.282 16.1261 17.114 16.8141 16.48 17.3921C16.35 17.5121 16.212 17.6241 16.07 17.7301C14.624 18.8181 14.412 19.6401 15.182 21.2781C16.494 24.0641 18.672 25.9341 21.49 27.0941C22.232 27.4001 22.932 27.2481 23.5 26.6461C23.576 26.5661 23.662 26.4881 23.718 26.3961C24.83 24.5421 26.44 24.7261 27.928 25.7841C28.906 26.4781 29.854 27.2101 30.822 27.9181C32.29 29.0001 32.278 30.0161 31.382 31.4801ZM23.022 12.2861C22.648 12.2861 22.272 12.3161 21.904 12.3781C21.28 12.4841 20.692 12.0621 20.588 11.4381C20.484 10.8161 20.904 10.2261 21.528 10.1221C22.018 10.0421 22.522 10.0001 23.022 10.0001C27.972 10.0001 32 14.0281 32 18.9781C32 19.4801 31.958 19.9841 31.876 20.4741C31.782 21.0321 31.298 21.4281 30.75 21.4281C30.688 21.4281 30.624 21.4241 30.56 21.4121C29.938 21.3061 29.518 20.7181 29.622 20.0961C29.684 19.7321 29.714 19.3561 29.714 18.9801C29.714 15.2881 26.712 12.2861 23.022 12.2861ZM28 19.7141C28 20.3441 27.488 20.8561 26.858 20.8561C26.228 20.8561 25.716 20.3441 25.716 19.7141C25.716 17.8241 24.178 16.2861 22.288 16.2861C21.658 16.2861 21.146 15.7741 21.146 15.1441C21.146 14.5141 21.658 14.0021 22.288 14.0021C25.436 14.0001 28 16.5641 28 19.7141ZM35.692 21.1081C35.572 21.6401 35.102 21.9981 34.578 21.9981C34.494 21.9981 34.408 21.9881 34.324 21.9701C33.708 21.8301 33.322 21.2181 33.462 20.6041C33.628 19.8741 33.712 19.1201 33.712 18.3641C33.712 12.8081 29.192 8.28607 23.634 8.28607C22.876 8.28607 22.124 8.37007 21.394 8.53607C20.782 8.67807 20.166 8.29006 20.028 7.67407C19.888 7.05806 20.274 6.44606 20.89 6.30806C21.786 6.10207 22.71 6.00007 23.638 6.00007C30.454 6.00007 36 11.5461 36 18.3621C36 19.2901 35.896 20.2141 35.692 21.1081Z" fill="white"/>
</svg>
