<svg width="329" height="314" viewBox="0 0 329 314" fill="none" xmlns="http://www.w3.org/2000/svg">
<path d="M295.25 40.0153C308.917 73.7273 279.828 111.193 263.575 125.712C260.846 167.852 263.361 240.871 295.25 195.827C335.111 139.522 330.84 50.6388 325.858 31.8706C320.875 13.1024 302.012 0 286.708 0C271.405 0 275.319 3.54118 259.66 12.3941C244 21.2471 244 26.5588 244 31.1624C244 35.7659 245.78 48.5141 263.219 48.5141C277.17 48.5141 290.386 42.8482 295.25 40.0153Z" fill="white"/>
<path fill-rule="evenodd" clip-rule="evenodd" d="M211.134 274.696C257.613 274.696 295.291 236.858 295.291 190.184C295.291 143.509 257.613 105.672 211.134 105.672C164.656 105.672 126.978 143.509 126.978 190.184C126.978 236.858 164.656 274.696 211.134 274.696ZM212.555 219.301C230.009 219.301 244.158 204.993 244.158 187.343C244.158 169.693 230.009 155.385 212.555 155.385C195.101 155.385 180.952 169.693 180.952 187.343C180.952 204.993 195.101 219.301 212.555 219.301Z" fill="white"/>
<path d="M174.35 93.0544L185.802 113L213 107.56C212.642 102.725 211.783 91.7489 211.211 86.5268C210.638 81.3046 206.439 80.7244 204.411 81.0871C196.896 82.2959 180.935 84.9311 177.213 85.8015C173.492 86.6718 173.754 90.9994 174.35 93.0544Z" fill="white"/>
<path d="M228.889 92.534L226.758 108.513L252.691 118.582C255.103 114.492 257.651 108.513 260.496 101.766C262.496 97.0258 262.351 94.4567 260.496 93.5992C251.26 89.3286 241.317 85.7872 233.86 83.6566C229.763 82.486 229.599 88.2728 228.889 92.534Z" fill="white"/>
<path d="M128.685 127.416L149.565 136.051L171.009 116.68C167.855 113.131 157.439 103.87 153.886 100.15C150.333 96.4291 146.676 98.5045 145.291 100.007C140.081 105.471 129.055 117.129 126.636 120.046C124.216 122.964 126.994 126.175 128.685 127.416Z" fill="white"/>
<path d="M101.766 177.046C101.766 182.017 105.921 181.321 108.158 181.307L117.745 180.241L131.949 178.821L138.341 150.769C132.304 148.993 128.043 146.863 119.876 144.377C114.905 142.864 111.168 141.053 109.933 145.442C106.738 156.805 101.766 173.469 101.766 177.046Z" fill="white"/>
<path d="M112.064 232.795C114.583 236.393 119.083 236.526 120.941 235.281L129.166 228.36L140.231 219.342L132.659 197.286C123.427 198.351 123.728 198.436 114.905 199.416C108.513 200.127 103.915 199.84 104.252 204.388C104.962 213.975 109.578 229.244 112.064 232.795Z" fill="white"/>
<path d="M0 252.279C84.2764 304.022 131.357 257.255 144.362 227.403C184.089 213.306 246.657 200.892 179.123 264.007C111.588 327.121 31.5682 282.486 0 252.279Z" fill="white"/>
<path d="M172.28 292.944C182.141 280.951 184.371 271.544 186.367 265.076C197.519 264.606 217.992 266.417 217.71 267.546C217.358 268.957 219.119 282.009 224.049 295.414C228.98 308.819 214.188 316.227 192.354 313.405C170.519 310.582 166.737 299.686 172.28 292.944Z" fill="white"/>
<path d="M294.934 277.479C288.995 273.709 276.826 251.26 287.834 224.628C276.704 226.301 244.607 260.025 245.102 261.087C245.72 262.414 242.859 274.283 244.158 291.385C245.247 305.724 258.846 313.259 279.92 306.284C300.994 299.31 302.356 282.19 294.934 277.479Z" fill="white"/>
</svg>
